<svg width="50" height="51" viewBox="0 0 50 51" fill="none" xmlns="http://www.w3.org/2000/svg">
<g clip-path="url(#clip0_170_7041)">
<rect y="0.339355" width="50" height="50" rx="10" fill="#040410"/>
<g filter="url(#filter0_f_170_7041)">
<path d="M13.8263 41.093C8.8532 37.1798 6 31.2866 6 24.9203V13.1874C6 12.9074 6.18664 12.6474 6.45331 12.5607L24.5992 6.37439C24.7392 6.32768 24.8859 6.32768 25.0259 6.37439L43.1718 12.5607C43.4385 12.6474 43.6251 12.9074 43.6251 13.1874" stroke="url(#paint0_linear_170_7041)" stroke-width="5"/>
</g>
<path d="M43.0911 12.7974L43.0945 12.7985C43.257 12.8513 43.3751 13.0144 43.3751 13.1874V24.9203C43.3751 31.2102 40.557 37.0305 35.6449 40.896C32.6894 43.2049 29.0894 44.9507 24.9331 46.0765C24.8907 46.0856 24.8569 46.0894 24.8192 46.0894C24.7775 46.0894 24.739 46.0848 24.7085 46.0773C20.5438 44.9515 16.9363 43.212 13.9805 40.8962C9.06826 37.0307 6.25 31.2103 6.25 24.9203V13.1874C6.25 13.0144 6.36813 12.8513 6.53058 12.7985L6.53059 12.7985L6.53398 12.7974L24.6783 6.61154C24.6786 6.61146 24.6788 6.61138 24.679 6.61131C24.7672 6.58204 24.8579 6.58204 24.9461 6.61131C24.9463 6.61138 24.9465 6.61146 24.9468 6.61154L43.0911 12.7974Z" fill="white"/>
<path d="M43.0911 12.7974L43.0945 12.7985C43.257 12.8513 43.3751 13.0144 43.3751 13.1874V24.9203C43.3751 31.2102 40.557 37.0305 35.6449 40.896C32.6894 43.2049 29.0894 44.9507 24.9331 46.0765C24.8907 46.0856 24.8569 46.0894 24.8192 46.0894C24.7775 46.0894 24.739 46.0848 24.7085 46.0773C20.5438 44.9515 16.9363 43.212 13.9805 40.8962C9.06826 37.0307 6.25 31.2103 6.25 24.9203V13.1874C6.25 13.0144 6.36813 12.8513 6.53058 12.7985L6.53059 12.7985L6.53398 12.7974L24.6783 6.61154C24.6786 6.61146 24.6788 6.61138 24.679 6.61131C24.7672 6.58204 24.8579 6.58204 24.9461 6.61131C24.9463 6.61138 24.9465 6.61146 24.9468 6.61154L43.0911 12.7974Z" fill="black"/>
<path d="M43.0911 12.7974L43.0945 12.7985C43.257 12.8513 43.3751 13.0144 43.3751 13.1874V24.9203C43.3751 31.2102 40.557 37.0305 35.6449 40.896C32.6894 43.2049 29.0894 44.9507 24.9331 46.0765C24.8907 46.0856 24.8569 46.0894 24.8192 46.0894C24.7775 46.0894 24.739 46.0848 24.7085 46.0773C20.5438 44.9515 16.9363 43.212 13.9805 40.8962C9.06826 37.0307 6.25 31.2103 6.25 24.9203V13.1874C6.25 13.0144 6.36813 12.8513 6.53058 12.7985L6.53059 12.7985L6.53398 12.7974L24.6783 6.61154C24.6786 6.61146 24.6788 6.61138 24.679 6.61131C24.7672 6.58204 24.8579 6.58204 24.9461 6.61131C24.9463 6.61138 24.9465 6.61146 24.9468 6.61154L43.0911 12.7974Z" fill="url(#paint1_radial_170_7041)"/>
<path d="M43.0911 12.7974L43.0945 12.7985C43.257 12.8513 43.3751 13.0144 43.3751 13.1874V24.9203C43.3751 31.2102 40.557 37.0305 35.6449 40.896C32.6894 43.2049 29.0894 44.9507 24.9331 46.0765C24.8907 46.0856 24.8569 46.0894 24.8192 46.0894C24.7775 46.0894 24.739 46.0848 24.7085 46.0773C20.5438 44.9515 16.9363 43.212 13.9805 40.8962C9.06826 37.0307 6.25 31.2103 6.25 24.9203V13.1874C6.25 13.0144 6.36813 12.8513 6.53058 12.7985L6.53059 12.7985L6.53398 12.7974L24.6783 6.61154C24.6786 6.61146 24.6788 6.61138 24.679 6.61131C24.7672 6.58204 24.8579 6.58204 24.9461 6.61131C24.9463 6.61138 24.9465 6.61146 24.9468 6.61154L43.0911 12.7974Z" stroke="url(#paint2_linear_170_7041)" stroke-width="0.5"/>
<g style="mix-blend-mode:plus-lighter" filter="url(#filter1_f_170_7041)">
<path d="M25.0259 6.37439C24.8859 6.32768 24.7392 6.32768 24.5992 6.37439L6.45331 12.5607C6.18664 12.6474 6 12.9074 6 13.1874V24.9203" stroke="url(#paint3_linear_170_7041)" stroke-width="2"/>
</g>
<path d="M19.8819 25.1921C18.4424 23.8 16.2598 25.9336 17.6839 27.3409L22.3462 31.8967C22.9499 32.4869 23.9406 32.4869 24.5443 31.8967L33.7709 22.9302C34.065 22.6276 34.2198 22.2493 34.2198 21.8559C34.2662 20.5545 32.5016 19.8131 31.5729 20.7815L23.4452 28.6888L19.8819 25.1921Z" fill="url(#paint4_linear_170_7041)"/>
</g>
<defs>
<filter id="filter0_f_170_7041" x="-1.5" y="-1.16064" width="52.625" height="49.2183" filterUnits="userSpaceOnUse" color-interpolation-filters="sRGB">
<feFlood flood-opacity="0" result="BackgroundImageFix"/>
<feBlend mode="normal" in="SourceGraphic" in2="BackgroundImageFix" result="shape"/>
<feGaussianBlur stdDeviation="2.5" result="effect1_foregroundBlur_170_7041"/>
</filter>
<filter id="filter1_f_170_7041" x="4" y="4.33936" width="22.3423" height="21.5811" filterUnits="userSpaceOnUse" color-interpolation-filters="sRGB">
<feFlood flood-opacity="0" result="BackgroundImageFix"/>
<feBlend mode="normal" in="SourceGraphic" in2="BackgroundImageFix" result="shape"/>
<feGaussianBlur stdDeviation="0.5" result="effect1_foregroundBlur_170_7041"/>
</filter>
<linearGradient id="paint0_linear_170_7041" x1="-2.12979" y1="13.0659" x2="13.4517" y2="37.4829" gradientUnits="userSpaceOnUse">
<stop stop-color="#7FC5EB"/>
<stop offset="0.33" stop-color="#89AEEA"/>
<stop offset="0.81" stop-color="#040410"/>
</linearGradient>
<radialGradient id="paint1_radial_170_7041" cx="0" cy="0" r="1" gradientUnits="userSpaceOnUse" gradientTransform="translate(-44.3085 6.33935) rotate(25.4705) scale(93.0133 52.147)">
<stop stop-color="#34678E"/>
<stop offset="1" stop-color="#040410"/>
</radialGradient>
<linearGradient id="paint2_linear_170_7041" x1="0.230817" y1="-17.2932" x2="57.9135" y2="28.2383" gradientUnits="userSpaceOnUse">
<stop stop-color="#7FB1EB"/>
<stop offset="0.33" stop-color="#89C3EA"/>
<stop offset="0.81" stop-color="#2F2F2F"/>
</linearGradient>
<linearGradient id="paint3_linear_170_7041" x1="7.81373" y1="6.34098" x2="18.3929" y2="18.0277" gradientUnits="userSpaceOnUse">
<stop stop-color="#7FC5EB"/>
<stop offset="0.33" stop-color="#89AEEA"/>
<stop offset="0.81" stop-color="#040410" stop-opacity="0"/>
</linearGradient>
<linearGradient id="paint4_linear_170_7041" x1="22.9942" y1="33.0812" x2="22.9942" y2="23.2476" gradientUnits="userSpaceOnUse">
<stop stop-color="#3D5277"/>
<stop offset="1" stop-color="#4A6374"/>
</linearGradient>
<clipPath id="clip0_170_7041">
<rect width="50" height="50" fill="white" transform="translate(0 0.339355)"/>
</clipPath>
</defs>
</svg>
