<svg width="50" height="51" viewBox="0 0 50 51" fill="none" xmlns="http://www.w3.org/2000/svg">
<g clip-path="url(#clip0_170_7020)">
<rect y="0.339355" width="50" height="50" rx="10" fill="#040410"/>
<g filter="url(#filter0_f_170_7020)">
<path d="M29 9.33936H24.0847H19.1694H16.9435H7.1129C6.49858 9.33936 6 9.86272 6 10.5076V34.3394" stroke="url(#paint0_linear_170_7020)" stroke-width="5"/>
</g>
<path d="M33.3143 28.0428V19.5894H43.8596C44.3396 19.5894 44.75 20.0023 44.75 20.5371V39.1416C44.75 39.6764 44.3396 40.0894 43.8596 40.0894H20.1404C19.6604 40.0894 19.25 39.6764 19.25 39.1416V31.8859H29.6433C31.6789 31.8859 33.3143 30.1502 33.3143 28.0428Z" fill="white"/>
<path d="M33.3143 28.0428V19.5894H43.8596C44.3396 19.5894 44.75 20.0023 44.75 20.5371V39.1416C44.75 39.6764 44.3396 40.0894 43.8596 40.0894H20.1404C19.6604 40.0894 19.25 39.6764 19.25 39.1416V31.8859H29.6433C31.6789 31.8859 33.3143 30.1502 33.3143 28.0428Z" fill="black"/>
<path d="M33.3143 28.0428V19.5894H43.8596C44.3396 19.5894 44.75 20.0023 44.75 20.5371V39.1416C44.75 39.6764 44.3396 40.0894 43.8596 40.0894H20.1404C19.6604 40.0894 19.25 39.6764 19.25 39.1416V31.8859H29.6433C31.6789 31.8859 33.3143 30.1502 33.3143 28.0428Z" fill="url(#paint1_radial_170_7020)"/>
<path d="M33.3143 28.0428V19.5894H43.8596C44.3396 19.5894 44.75 20.0023 44.75 20.5371V39.1416C44.75 39.6764 44.3396 40.0894 43.8596 40.0894H20.1404C19.6604 40.0894 19.25 39.6764 19.25 39.1416V31.8859H29.6433C31.6789 31.8859 33.3143 30.1502 33.3143 28.0428Z" stroke="url(#paint2_linear_170_7020)" stroke-width="0.5"/>
<path d="M13.8623 28.8215H13.7583L13.685 28.8953L7.7927 34.8234C7.7927 34.8234 7.79269 34.8234 7.79269 34.8234C7.61982 34.9973 7.38868 35.0894 7.15385 35.0894C7.03691 35.0894 6.9204 35.067 6.80842 35.0204L6.80833 35.0203C6.47083 34.8799 6.25 34.5482 6.25 34.1786V10.5001C6.25 9.99603 6.65639 9.58936 7.15385 9.58936H17.3462H19.6538H24.75H29.8462C30.3436 9.58936 30.75 9.99603 30.75 10.5001V27.9108C30.75 28.4148 30.3436 28.8215 29.8462 28.8215H13.8623Z" fill="#D9D9D9"/>
<path d="M13.8623 28.8215H13.7583L13.685 28.8953L7.7927 34.8234C7.7927 34.8234 7.79269 34.8234 7.79269 34.8234C7.61982 34.9973 7.38868 35.0894 7.15385 35.0894C7.03691 35.0894 6.9204 35.067 6.80842 35.0204L6.80833 35.0203C6.47083 34.8799 6.25 34.5482 6.25 34.1786V10.5001C6.25 9.99603 6.65639 9.58936 7.15385 9.58936H17.3462H19.6538H24.75H29.8462C30.3436 9.58936 30.75 9.99603 30.75 10.5001V27.9108C30.75 28.4148 30.3436 28.8215 29.8462 28.8215H13.8623Z" fill="black"/>
<path d="M13.8623 28.8215H13.7583L13.685 28.8953L7.7927 34.8234C7.7927 34.8234 7.79269 34.8234 7.79269 34.8234C7.61982 34.9973 7.38868 35.0894 7.15385 35.0894C7.03691 35.0894 6.9204 35.067 6.80842 35.0204L6.80833 35.0203C6.47083 34.8799 6.25 34.5482 6.25 34.1786V10.5001C6.25 9.99603 6.65639 9.58936 7.15385 9.58936H17.3462H19.6538H24.75H29.8462C30.3436 9.58936 30.75 9.99603 30.75 10.5001V27.9108C30.75 28.4148 30.3436 28.8215 29.8462 28.8215H13.8623Z" fill="url(#paint3_radial_170_7020)"/>
<path d="M13.8623 28.8215H13.7583L13.685 28.8953L7.7927 34.8234C7.7927 34.8234 7.79269 34.8234 7.79269 34.8234C7.61982 34.9973 7.38868 35.0894 7.15385 35.0894C7.03691 35.0894 6.9204 35.067 6.80842 35.0204L6.80833 35.0203C6.47083 34.8799 6.25 34.5482 6.25 34.1786V10.5001C6.25 9.99603 6.65639 9.58936 7.15385 9.58936H17.3462H19.6538H24.75H29.8462C30.3436 9.58936 30.75 9.99603 30.75 10.5001V27.9108C30.75 28.4148 30.3436 28.8215 29.8462 28.8215H13.8623Z" stroke="url(#paint4_linear_170_7020)" stroke-width="0.5"/>
<path d="M13.8623 28.8215H13.7583L13.685 28.8953L7.7927 34.8234C7.7927 34.8234 7.79269 34.8234 7.79269 34.8234C7.61982 34.9973 7.38868 35.0894 7.15385 35.0894C7.03691 35.0894 6.9204 35.067 6.80842 35.0204L6.80833 35.0203C6.47083 34.8799 6.25 34.5482 6.25 34.1786V10.5001C6.25 9.99603 6.65639 9.58936 7.15385 9.58936H17.3462H19.6538H24.75H29.8462C30.3436 9.58936 30.75 9.99603 30.75 10.5001V27.9108C30.75 28.4148 30.3436 28.8215 29.8462 28.8215H13.8623Z" stroke="url(#paint5_linear_170_7020)" stroke-width="0.5"/>
<g style="mix-blend-mode:plus-lighter" filter="url(#filter1_f_170_7020)">
<path d="M29 9.33936H24.0847H19.1694H16.9435H7.1129C6.49858 9.33936 6 9.86272 6 10.5076V34.3394" stroke="url(#paint6_linear_170_7020)" stroke-width="2"/>
</g>
<path d="M27.4648 37.385H42.1618C42.9704 37.385 43.6267 36.7028 43.6267 35.8622C43.6267 35.0216 42.9704 34.3394 42.1618 34.3394H27.4648C26.6562 34.3394 26 35.0216 26 35.8622C26 36.7028 26.6562 37.385 27.4648 37.385Z" fill="white"/>
<path d="M27.4648 37.385H42.1618C42.9704 37.385 43.6267 36.7028 43.6267 35.8622C43.6267 35.0216 42.9704 34.3394 42.1618 34.3394H27.4648C26.6562 34.3394 26 35.0216 26 35.8622C26 36.7028 26.6562 37.385 27.4648 37.385Z" fill="black"/>
<path d="M27.4648 37.385H42.1618C42.9704 37.385 43.6267 36.7028 43.6267 35.8622C43.6267 35.0216 42.9704 34.3394 42.1618 34.3394H27.4648C26.6562 34.3394 26 35.0216 26 35.8622C26 36.7028 26.6562 37.385 27.4648 37.385Z" fill="url(#paint7_radial_170_7020)"/>
<path d="M27.4648 37.385H42.1618C42.9704 37.385 43.6267 36.7028 43.6267 35.8622C43.6267 35.0216 42.9704 34.3394 42.1618 34.3394H27.4648C26.6562 34.3394 26 35.0216 26 35.8622C26 36.7028 26.6562 37.385 27.4648 37.385Z" fill="url(#paint8_linear_170_7020)"/>
<path d="M36.122 31.385H42.162C42.9706 31.385 43.6268 30.7028 43.6268 29.8622C43.6268 29.0216 42.9706 28.3394 42.162 28.3394H36.122C35.3135 28.3394 34.6572 29.0216 34.6572 29.8622C34.6572 30.7028 35.3135 31.385 36.122 31.385Z" fill="white"/>
<path d="M36.122 31.385H42.162C42.9706 31.385 43.6268 30.7028 43.6268 29.8622C43.6268 29.0216 42.9706 28.3394 42.162 28.3394H36.122C35.3135 28.3394 34.6572 29.0216 34.6572 29.8622C34.6572 30.7028 35.3135 31.385 36.122 31.385Z" fill="black"/>
<path d="M36.122 31.385H42.162C42.9706 31.385 43.6268 30.7028 43.6268 29.8622C43.6268 29.0216 42.9706 28.3394 42.162 28.3394H36.122C35.3135 28.3394 34.6572 29.0216 34.6572 29.8622C34.6572 30.7028 35.3135 31.385 36.122 31.385Z" fill="url(#paint9_radial_170_7020)"/>
<path d="M36.122 31.385H42.162C42.9706 31.385 43.6268 30.7028 43.6268 29.8622C43.6268 29.0216 42.9706 28.3394 42.162 28.3394H36.122C35.3135 28.3394 34.6572 29.0216 34.6572 29.8622C34.6572 30.7028 35.3135 31.385 36.122 31.385Z" fill="url(#paint10_linear_170_7020)"/>
<path d="M36.122 25.385H42.162C42.9706 25.385 43.6268 24.7028 43.6268 23.8622C43.6268 23.0216 42.9706 22.3394 42.162 22.3394H36.122C35.3135 22.3394 34.6572 23.0216 34.6572 23.8622C34.6572 24.7028 35.3135 25.385 36.122 25.385Z" fill="white"/>
<path d="M36.122 25.385H42.162C42.9706 25.385 43.6268 24.7028 43.6268 23.8622C43.6268 23.0216 42.9706 22.3394 42.162 22.3394H36.122C35.3135 22.3394 34.6572 23.0216 34.6572 23.8622C34.6572 24.7028 35.3135 25.385 36.122 25.385Z" fill="black"/>
<path d="M36.122 25.385H42.162C42.9706 25.385 43.6268 24.7028 43.6268 23.8622C43.6268 23.0216 42.9706 22.3394 42.162 22.3394H36.122C35.3135 22.3394 34.6572 23.0216 34.6572 23.8622C34.6572 24.7028 35.3135 25.385 36.122 25.385Z" fill="url(#paint11_radial_170_7020)"/>
<path d="M36.122 25.385H42.162C42.9706 25.385 43.6268 24.7028 43.6268 23.8622C43.6268 23.0216 42.9706 22.3394 42.162 22.3394H36.122C35.3135 22.3394 34.6572 23.0216 34.6572 23.8622C34.6572 24.7028 35.3135 25.385 36.122 25.385Z" fill="url(#paint12_linear_170_7020)"/>
</g>
<defs>
<filter id="filter0_f_170_7020" x="-1.5" y="1.83936" width="35.5" height="37.5" filterUnits="userSpaceOnUse" color-interpolation-filters="sRGB">
<feFlood flood-opacity="0" result="BackgroundImageFix"/>
<feBlend mode="normal" in="SourceGraphic" in2="BackgroundImageFix" result="shape"/>
<feGaussianBlur stdDeviation="2.5" result="effect1_foregroundBlur_170_7020"/>
</filter>
<filter id="filter1_f_170_7020" x="4" y="7.33936" width="26" height="28" filterUnits="userSpaceOnUse" color-interpolation-filters="sRGB">
<feFlood flood-opacity="0" result="BackgroundImageFix"/>
<feBlend mode="normal" in="SourceGraphic" in2="BackgroundImageFix" result="shape"/>
<feGaussianBlur stdDeviation="0.5" result="effect1_foregroundBlur_170_7020"/>
</filter>
<linearGradient id="paint0_linear_170_7020" x1="1.03031" y1="14.1781" x2="12.8987" y2="29.9827" gradientUnits="userSpaceOnUse">
<stop stop-color="#7FC5EB"/>
<stop offset="0.33" stop-color="#89AEEA"/>
<stop offset="0.81" stop-color="#040410"/>
</linearGradient>
<radialGradient id="paint1_radial_170_7020" cx="0" cy="0" r="1" gradientUnits="userSpaceOnUse" gradientTransform="translate(-15.7646 19.3394) rotate(19.895) scale(61.7107 28.5146)">
<stop stop-color="#34678E"/>
<stop offset="1" stop-color="#040410"/>
</radialGradient>
<linearGradient id="paint2_linear_170_7020" x1="15.0133" y1="6.9323" x2="46.1252" y2="39.2566" gradientUnits="userSpaceOnUse">
<stop stop-color="#7FB1EB"/>
<stop offset="0.33" stop-color="#89C3EA"/>
<stop offset="0.81" stop-color="#2F2F2F"/>
</linearGradient>
<radialGradient id="paint3_radial_170_7020" cx="0" cy="0" r="1" gradientUnits="userSpaceOnUse" gradientTransform="translate(-27.4275 9.33935) rotate(24.9848) scale(61.5563 34.0311)">
<stop stop-color="#34678E"/>
<stop offset="1" stop-color="#040410"/>
</radialGradient>
<linearGradient id="paint4_linear_170_7020" x1="6.23333" y1="12.1474" x2="29.1751" y2="40.3942" gradientUnits="userSpaceOnUse">
<stop stop-color="#7FB1EB"/>
<stop offset="0.33" stop-color="#89C3EA"/>
<stop offset="0.81" stop-color="#2F2F2F"/>
</linearGradient>
<linearGradient id="paint5_linear_170_7020" x1="25.1667" y1="34.0567" x2="10.2215" y2="11.0098" gradientUnits="userSpaceOnUse">
<stop stop-color="white" stop-opacity="0"/>
<stop offset="1" stop-color="white"/>
</linearGradient>
<linearGradient id="paint6_linear_170_7020" x1="3.44218" y1="9.33936" x2="21.6934" y2="24.1907" gradientUnits="userSpaceOnUse">
<stop stop-color="#7FC5EB"/>
<stop offset="0.33" stop-color="#89AEEA"/>
<stop offset="0.81" stop-color="#040410" stop-opacity="0"/>
</linearGradient>
<radialGradient id="paint7_radial_170_7020" cx="0" cy="0" r="1" gradientUnits="userSpaceOnUse" gradientTransform="translate(-30.0337 21.7505) rotate(19.7081) scale(79.1765 36.2976)">
<stop stop-color="#34678E"/>
<stop offset="1" stop-color="#040410"/>
</radialGradient>
<linearGradient id="paint8_linear_170_7020" x1="35.6937" y1="34.6683" x2="37.1926" y2="39.7147" gradientUnits="userSpaceOnUse">
<stop stop-color="#112039"/>
<stop offset="1" stop-color="#2F2F2F"/>
</linearGradient>
<radialGradient id="paint9_radial_170_7020" cx="0" cy="0" r="1" gradientUnits="userSpaceOnUse" gradientTransform="translate(-30.0336 15.7505) rotate(19.7081) scale(79.1765 36.2976)">
<stop stop-color="#34678E"/>
<stop offset="1" stop-color="#040410"/>
</radialGradient>
<linearGradient id="paint10_linear_170_7020" x1="35.6939" y1="28.6683" x2="37.1928" y2="33.7147" gradientUnits="userSpaceOnUse">
<stop stop-color="#112039"/>
<stop offset="1" stop-color="#2F2F2F"/>
</linearGradient>
<radialGradient id="paint11_radial_170_7020" cx="0" cy="0" r="1" gradientUnits="userSpaceOnUse" gradientTransform="translate(-30.0336 9.75048) rotate(19.7081) scale(79.1765 36.2976)">
<stop stop-color="#34678E"/>
<stop offset="1" stop-color="#040410"/>
</radialGradient>
<linearGradient id="paint12_linear_170_7020" x1="35.6939" y1="22.6683" x2="37.1928" y2="27.7147" gradientUnits="userSpaceOnUse">
<stop stop-color="#112039"/>
<stop offset="1" stop-color="#2F2F2F"/>
</linearGradient>
<clipPath id="clip0_170_7020">
<rect width="50" height="50" fill="white" transform="translate(0 0.339355)"/>
</clipPath>
</defs>
</svg>
