<svg width="50" height="51" viewBox="0 0 50 51" fill="none" xmlns="http://www.w3.org/2000/svg">
<rect y="0.339355" width="50" height="50" rx="10" fill="#040410"/>
<g filter="url(#filter0_f_170_7030)">
<path d="M17.398 12.8394H18.4397C18.4906 13.0083 18.514 13.1779 18.514 13.3394C18.514 13.4388 18.5051 13.5413 18.4864 13.6448C18.4073 13.7112 18.333 13.7764 18.2635 13.8394H17.398C17.6487 13.5619 17.6487 13.1169 17.398 12.8394ZM8.686 13.3394C8.686 13.2225 8.69823 13.1014 8.72428 12.9794C8.84104 12.8988 9.00224 12.8394 9.2 12.8394H9.80195C9.55135 13.1169 9.55135 13.5619 9.80195 13.8394H8.76026C8.70936 13.6704 8.686 13.5008 8.686 13.3394ZM12.0397 13.8394H11.9603C11.9094 13.6704 11.886 13.5008 11.886 13.3394C11.886 13.1779 11.9094 13.0083 11.9603 12.8394H12.0397C12.0906 13.0083 12.114 13.1779 12.114 13.3394C12.114 13.5008 12.0906 13.6704 12.0397 13.8394ZM15.2397 13.8394H15.1603C15.1094 13.6704 15.086 13.5008 15.086 13.3394C15.086 13.1779 15.1094 13.0083 15.1603 12.8394H15.2397C15.2906 13.0083 15.314 13.1779 15.314 13.3394C15.314 13.5008 15.2906 13.6704 15.2397 13.8394Z" stroke="url(#paint0_linear_170_7030)" stroke-width="5"/>
</g>
<path d="M10.6394 14.3393L10.6394 14.3395L10.6495 14.3393C10.9833 14.3325 11.2553 14.2159 11.4445 14.0244C11.6317 13.835 11.7241 13.586 11.7241 13.3394C11.7241 13.0927 11.6317 12.8437 11.4445 12.6543C11.2553 12.4629 10.9833 12.3462 10.6495 12.3394L10.6495 12.3392L10.6394 12.3394C10.3056 12.3462 10.0336 12.4629 9.84438 12.6543C9.65722 12.8437 9.56478 13.0927 9.56478 13.3394C9.56478 13.586 9.65722 13.835 9.84438 14.0244C10.0336 14.2159 10.3056 14.3325 10.6394 14.3393ZM14.0171 14.3393L14.0171 14.3395L14.0273 14.3393C14.3611 14.3325 14.6331 14.2159 14.8223 14.0244C15.0094 13.835 15.1019 13.586 15.1019 13.3394C15.1019 13.0927 15.0094 12.8437 14.8223 12.6543C14.6331 12.4629 14.3611 12.3462 14.0273 12.3394L14.0273 12.3392L14.0171 12.3394C13.6834 12.3462 13.4114 12.4629 13.2222 12.6543C13.035 12.8437 12.9426 13.0927 12.9426 13.3394C12.9426 13.586 13.035 13.835 13.2222 14.0244C13.4114 14.2159 13.6834 14.3325 14.0171 14.3393ZM17.3949 14.3393L17.3949 14.3395L17.4051 14.3393C17.7389 14.3325 18.0108 14.2159 18.2001 14.0244C18.3872 13.835 18.4797 13.586 18.4797 13.3394C18.4797 13.0927 18.3872 12.8437 18.2001 12.6543C18.0108 12.4629 17.7389 12.3462 17.4051 12.3394L17.4051 12.3392L17.3949 12.3394C17.0611 12.3462 16.7892 12.4629 16.5999 12.6543C16.4128 12.8437 16.3203 13.0927 16.3203 13.3394C16.3203 13.586 16.4128 13.835 16.5999 14.0244C16.7892 14.2159 17.0611 14.3325 17.3949 14.3393ZM9.37778 10.5894H40.6222C42.3791 10.5894 43.75 11.847 43.75 13.3394V14.5894H22.7515C21.5966 14.5341 20.7237 15.3265 20.085 15.9377C19.975 16.034 19.826 16.0894 19.6547 16.0894H6.25V13.3394C6.25 11.847 7.62093 10.5894 9.37778 10.5894Z" fill="white"/>
<path d="M10.6394 14.3393L10.6394 14.3395L10.6495 14.3393C10.9833 14.3325 11.2553 14.2159 11.4445 14.0244C11.6317 13.835 11.7241 13.586 11.7241 13.3394C11.7241 13.0927 11.6317 12.8437 11.4445 12.6543C11.2553 12.4629 10.9833 12.3462 10.6495 12.3394L10.6495 12.3392L10.6394 12.3394C10.3056 12.3462 10.0336 12.4629 9.84438 12.6543C9.65722 12.8437 9.56478 13.0927 9.56478 13.3394C9.56478 13.586 9.65722 13.835 9.84438 14.0244C10.0336 14.2159 10.3056 14.3325 10.6394 14.3393ZM14.0171 14.3393L14.0171 14.3395L14.0273 14.3393C14.3611 14.3325 14.6331 14.2159 14.8223 14.0244C15.0094 13.835 15.1019 13.586 15.1019 13.3394C15.1019 13.0927 15.0094 12.8437 14.8223 12.6543C14.6331 12.4629 14.3611 12.3462 14.0273 12.3394L14.0273 12.3392L14.0171 12.3394C13.6834 12.3462 13.4114 12.4629 13.2222 12.6543C13.035 12.8437 12.9426 13.0927 12.9426 13.3394C12.9426 13.586 13.035 13.835 13.2222 14.0244C13.4114 14.2159 13.6834 14.3325 14.0171 14.3393ZM17.3949 14.3393L17.3949 14.3395L17.4051 14.3393C17.7389 14.3325 18.0108 14.2159 18.2001 14.0244C18.3872 13.835 18.4797 13.586 18.4797 13.3394C18.4797 13.0927 18.3872 12.8437 18.2001 12.6543C18.0108 12.4629 17.7389 12.3462 17.4051 12.3394L17.4051 12.3392L17.3949 12.3394C17.0611 12.3462 16.7892 12.4629 16.5999 12.6543C16.4128 12.8437 16.3203 13.0927 16.3203 13.3394C16.3203 13.586 16.4128 13.835 16.5999 14.0244C16.7892 14.2159 17.0611 14.3325 17.3949 14.3393ZM9.37778 10.5894H40.6222C42.3791 10.5894 43.75 11.847 43.75 13.3394V14.5894H22.7515C21.5966 14.5341 20.7237 15.3265 20.085 15.9377C19.975 16.034 19.826 16.0894 19.6547 16.0894H6.25V13.3394C6.25 11.847 7.62093 10.5894 9.37778 10.5894Z" fill="black"/>
<path d="M10.6394 14.3393L10.6394 14.3395L10.6495 14.3393C10.9833 14.3325 11.2553 14.2159 11.4445 14.0244C11.6317 13.835 11.7241 13.586 11.7241 13.3394C11.7241 13.0927 11.6317 12.8437 11.4445 12.6543C11.2553 12.4629 10.9833 12.3462 10.6495 12.3394L10.6495 12.3392L10.6394 12.3394C10.3056 12.3462 10.0336 12.4629 9.84438 12.6543C9.65722 12.8437 9.56478 13.0927 9.56478 13.3394C9.56478 13.586 9.65722 13.835 9.84438 14.0244C10.0336 14.2159 10.3056 14.3325 10.6394 14.3393ZM14.0171 14.3393L14.0171 14.3395L14.0273 14.3393C14.3611 14.3325 14.6331 14.2159 14.8223 14.0244C15.0094 13.835 15.1019 13.586 15.1019 13.3394C15.1019 13.0927 15.0094 12.8437 14.8223 12.6543C14.6331 12.4629 14.3611 12.3462 14.0273 12.3394L14.0273 12.3392L14.0171 12.3394C13.6834 12.3462 13.4114 12.4629 13.2222 12.6543C13.035 12.8437 12.9426 13.0927 12.9426 13.3394C12.9426 13.586 13.035 13.835 13.2222 14.0244C13.4114 14.2159 13.6834 14.3325 14.0171 14.3393ZM17.3949 14.3393L17.3949 14.3395L17.4051 14.3393C17.7389 14.3325 18.0108 14.2159 18.2001 14.0244C18.3872 13.835 18.4797 13.586 18.4797 13.3394C18.4797 13.0927 18.3872 12.8437 18.2001 12.6543C18.0108 12.4629 17.7389 12.3462 17.4051 12.3394L17.4051 12.3392L17.3949 12.3394C17.0611 12.3462 16.7892 12.4629 16.5999 12.6543C16.4128 12.8437 16.3203 13.0927 16.3203 13.3394C16.3203 13.586 16.4128 13.835 16.5999 14.0244C16.7892 14.2159 17.0611 14.3325 17.3949 14.3393ZM9.37778 10.5894H40.6222C42.3791 10.5894 43.75 11.847 43.75 13.3394V14.5894H22.7515C21.5966 14.5341 20.7237 15.3265 20.085 15.9377C19.975 16.034 19.826 16.0894 19.6547 16.0894H6.25V13.3394C6.25 11.847 7.62093 10.5894 9.37778 10.5894Z" fill="url(#paint1_radial_170_7030)"/>
<path d="M10.6394 14.3393L10.6394 14.3395L10.6495 14.3393C10.9833 14.3325 11.2553 14.2159 11.4445 14.0244C11.6317 13.835 11.7241 13.586 11.7241 13.3394C11.7241 13.0927 11.6317 12.8437 11.4445 12.6543C11.2553 12.4629 10.9833 12.3462 10.6495 12.3394L10.6495 12.3392L10.6394 12.3394C10.3056 12.3462 10.0336 12.4629 9.84438 12.6543C9.65722 12.8437 9.56478 13.0927 9.56478 13.3394C9.56478 13.586 9.65722 13.835 9.84438 14.0244C10.0336 14.2159 10.3056 14.3325 10.6394 14.3393ZM14.0171 14.3393L14.0171 14.3395L14.0273 14.3393C14.3611 14.3325 14.6331 14.2159 14.8223 14.0244C15.0094 13.835 15.1019 13.586 15.1019 13.3394C15.1019 13.0927 15.0094 12.8437 14.8223 12.6543C14.6331 12.4629 14.3611 12.3462 14.0273 12.3394L14.0273 12.3392L14.0171 12.3394C13.6834 12.3462 13.4114 12.4629 13.2222 12.6543C13.035 12.8437 12.9426 13.0927 12.9426 13.3394C12.9426 13.586 13.035 13.835 13.2222 14.0244C13.4114 14.2159 13.6834 14.3325 14.0171 14.3393ZM17.3949 14.3393L17.3949 14.3395L17.4051 14.3393C17.7389 14.3325 18.0108 14.2159 18.2001 14.0244C18.3872 13.835 18.4797 13.586 18.4797 13.3394C18.4797 13.0927 18.3872 12.8437 18.2001 12.6543C18.0108 12.4629 17.7389 12.3462 17.4051 12.3394L17.4051 12.3392L17.3949 12.3394C17.0611 12.3462 16.7892 12.4629 16.5999 12.6543C16.4128 12.8437 16.3203 13.0927 16.3203 13.3394C16.3203 13.586 16.4128 13.835 16.5999 14.0244C16.7892 14.2159 17.0611 14.3325 17.3949 14.3393ZM9.37778 10.5894H40.6222C42.3791 10.5894 43.75 11.847 43.75 13.3394V14.5894H22.7515C21.5966 14.5341 20.7237 15.3265 20.085 15.9377C19.975 16.034 19.826 16.0894 19.6547 16.0894H6.25V13.3394C6.25 11.847 7.62093 10.5894 9.37778 10.5894Z" stroke="url(#paint2_linear_170_7030)" stroke-width="0.5"/>
<path d="M10.6394 14.3393L10.6394 14.3395L10.6495 14.3393C10.9833 14.3325 11.2553 14.2159 11.4445 14.0244C11.6317 13.835 11.7241 13.586 11.7241 13.3394C11.7241 13.0927 11.6317 12.8437 11.4445 12.6543C11.2553 12.4629 10.9833 12.3462 10.6495 12.3394L10.6495 12.3392L10.6394 12.3394C10.3056 12.3462 10.0336 12.4629 9.84438 12.6543C9.65722 12.8437 9.56478 13.0927 9.56478 13.3394C9.56478 13.586 9.65722 13.835 9.84438 14.0244C10.0336 14.2159 10.3056 14.3325 10.6394 14.3393ZM14.0171 14.3393L14.0171 14.3395L14.0273 14.3393C14.3611 14.3325 14.6331 14.2159 14.8223 14.0244C15.0094 13.835 15.1019 13.586 15.1019 13.3394C15.1019 13.0927 15.0094 12.8437 14.8223 12.6543C14.6331 12.4629 14.3611 12.3462 14.0273 12.3394L14.0273 12.3392L14.0171 12.3394C13.6834 12.3462 13.4114 12.4629 13.2222 12.6543C13.035 12.8437 12.9426 13.0927 12.9426 13.3394C12.9426 13.586 13.035 13.835 13.2222 14.0244C13.4114 14.2159 13.6834 14.3325 14.0171 14.3393ZM17.3949 14.3393L17.3949 14.3395L17.4051 14.3393C17.7389 14.3325 18.0108 14.2159 18.2001 14.0244C18.3872 13.835 18.4797 13.586 18.4797 13.3394C18.4797 13.0927 18.3872 12.8437 18.2001 12.6543C18.0108 12.4629 17.7389 12.3462 17.4051 12.3394L17.4051 12.3392L17.3949 12.3394C17.0611 12.3462 16.7892 12.4629 16.5999 12.6543C16.4128 12.8437 16.3203 13.0927 16.3203 13.3394C16.3203 13.586 16.4128 13.835 16.5999 14.0244C16.7892 14.2159 17.0611 14.3325 17.3949 14.3393ZM9.37778 10.5894H40.6222C42.3791 10.5894 43.75 11.847 43.75 13.3394V14.5894H22.7515C21.5966 14.5341 20.7237 15.3265 20.085 15.9377C19.975 16.034 19.826 16.0894 19.6547 16.0894H6.25V13.3394C6.25 11.847 7.62093 10.5894 9.37778 10.5894Z" stroke="url(#paint3_linear_170_7030)" stroke-width="0.5"/>
<g style="mix-blend-mode:plus-lighter" filter="url(#filter1_f_170_7030)">
<path d="M39 10.3394H9.21951C7.44073 10.3394 6 11.6819 6 13.3394V19.3394" stroke="url(#paint4_linear_170_7030)" stroke-width="2"/>
</g>
<path d="M21.1924 17.4896C21.6253 17.1866 22.0001 16.7849 22.3278 16.4228C22.4397 16.3094 22.5847 16.25 22.7453 16.25H43.75V38.5333C43.75 40.3168 42.3443 41.75 40.6222 41.75H9.37778C7.65571 41.75 6.25 40.3168 6.25 38.5333V17.9833H19.6487C20.2456 18.011 20.7556 17.7955 21.1924 17.4896Z" fill="white"/>
<path d="M21.1924 17.4896C21.6253 17.1866 22.0001 16.7849 22.3278 16.4228C22.4397 16.3094 22.5847 16.25 22.7453 16.25H43.75V38.5333C43.75 40.3168 42.3443 41.75 40.6222 41.75H9.37778C7.65571 41.75 6.25 40.3168 6.25 38.5333V17.9833H19.6487C20.2456 18.011 20.7556 17.7955 21.1924 17.4896Z" fill="black"/>
<path d="M21.1924 17.4896C21.6253 17.1866 22.0001 16.7849 22.3278 16.4228C22.4397 16.3094 22.5847 16.25 22.7453 16.25H43.75V38.5333C43.75 40.3168 42.3443 41.75 40.6222 41.75H9.37778C7.65571 41.75 6.25 40.3168 6.25 38.5333V17.9833H19.6487C20.2456 18.011 20.7556 17.7955 21.1924 17.4896Z" fill="url(#paint5_radial_170_7030)"/>
<path d="M21.1924 17.4896C21.6253 17.1866 22.0001 16.7849 22.3278 16.4228C22.4397 16.3094 22.5847 16.25 22.7453 16.25H43.75V38.5333C43.75 40.3168 42.3443 41.75 40.6222 41.75H9.37778C7.65571 41.75 6.25 40.3168 6.25 38.5333V17.9833H19.6487C20.2456 18.011 20.7556 17.7955 21.1924 17.4896Z" stroke="url(#paint6_linear_170_7030)" stroke-width="0.5"/>
<g style="mix-blend-mode:plus-lighter" filter="url(#filter2_f_170_7030)">
<path d="M6 18.3394V37.3394" stroke="url(#paint7_linear_170_7030)" stroke-width="2"/>
</g>
<path d="M19.9639 25.9505C21.3695 24.538 19.2152 22.3965 17.7943 23.7938L12.4469 29.1097C11.851 29.702 11.851 30.674 12.4469 31.2664L17.7943 36.5822C18.0999 36.8708 18.4819 37.0227 18.8791 37.0227C20.1931 37.0682 20.9417 35.3368 19.9639 34.4255L15.6859 30.188L19.9639 25.9505Z" fill="url(#paint8_linear_170_7030)"/>
<path d="M30.7892 34.8285L28.5172 29.6538L26.1116 24.1747C25.3097 22.4093 22.9575 23.7182 23.7327 25.5445L28.4103 36.1982C29.1855 37.9637 31.5777 36.6092 30.7892 34.8285Z" fill="url(#paint9_linear_170_7030)"/>
<path d="M33.5117 25.9507L37.7887 30.1855L33.5117 34.4203C32.1064 35.8318 34.2449 37.9568 35.6807 36.5756L41.027 31.2631C41.6227 30.6712 41.6227 29.6998 41.027 29.1078L35.6807 23.7954C34.2601 22.399 32.1064 24.5239 33.5117 25.9507Z" fill="url(#paint10_linear_170_7030)"/>
<defs>
<filter id="filter0_f_170_7030" x="1" y="5.33936" width="46" height="16" filterUnits="userSpaceOnUse" color-interpolation-filters="sRGB">
<feFlood flood-opacity="0" result="BackgroundImageFix"/>
<feBlend mode="normal" in="SourceGraphic" in2="BackgroundImageFix" result="shape"/>
<feGaussianBlur stdDeviation="2.5" result="effect1_foregroundBlur_170_7030"/>
</filter>
<filter id="filter1_f_170_7030" x="4" y="8.33936" width="36" height="12" filterUnits="userSpaceOnUse" color-interpolation-filters="sRGB">
<feFlood flood-opacity="0" result="BackgroundImageFix"/>
<feBlend mode="normal" in="SourceGraphic" in2="BackgroundImageFix" result="shape"/>
<feGaussianBlur stdDeviation="0.5" result="effect1_foregroundBlur_170_7030"/>
</filter>
<filter id="filter2_f_170_7030" x="4" y="17.3394" width="4" height="21" filterUnits="userSpaceOnUse" color-interpolation-filters="sRGB">
<feFlood flood-opacity="0" result="BackgroundImageFix"/>
<feBlend mode="normal" in="SourceGraphic" in2="BackgroundImageFix" result="shape"/>
<feGaussianBlur stdDeviation="0.5" result="effect1_foregroundBlur_170_7030"/>
</filter>
<linearGradient id="paint0_linear_170_7030" x1="0.8" y1="10.3394" x2="17.1528" y2="12.892" gradientUnits="userSpaceOnUse">
<stop stop-color="#7FC5EB"/>
<stop offset="0.33" stop-color="#89AEEA"/>
<stop offset="0.81" stop-color="#040410"/>
</linearGradient>
<radialGradient id="paint1_radial_170_7030" cx="0" cy="0" r="1" gradientUnits="userSpaceOnUse" gradientTransform="translate(-44.8097 10.3394) rotate(4.04674) scale(85.0217 8.64253)">
<stop stop-color="#34678E"/>
<stop offset="1" stop-color="#040410"/>
</radialGradient>
<linearGradient id="paint2_linear_170_7030" x1="0.173335" y1="6.79448" x2="3.4064" y2="23.9774" gradientUnits="userSpaceOnUse">
<stop stop-color="#7FB1EB"/>
<stop offset="0.33" stop-color="#89C3EA"/>
<stop offset="0.81" stop-color="#2F2F2F"/>
</linearGradient>
<linearGradient id="paint3_linear_170_7030" x1="15.7111" y1="15.5894" x2="14.3655" y2="8.7716" gradientUnits="userSpaceOnUse">
<stop stop-color="white" stop-opacity="0"/>
<stop offset="1" stop-color="white"/>
</linearGradient>
<linearGradient id="paint4_linear_170_7030" x1="0.365853" y1="13.3394" x2="5.0457" y2="24.1142" gradientUnits="userSpaceOnUse">
<stop stop-color="#7FC5EB"/>
<stop offset="0.33" stop-color="#89AEEA"/>
<stop offset="0.81" stop-color="#040410" stop-opacity="0"/>
</linearGradient>
<radialGradient id="paint5_radial_170_7030" cx="0" cy="0" r="1" gradientUnits="userSpaceOnUse" gradientTransform="translate(-44.8097 16) rotate(17.0439) scale(88.7056 35.8956)">
<stop stop-color="#34678E"/>
<stop offset="1" stop-color="#040410"/>
</radialGradient>
<linearGradient id="paint6_linear_170_7030" x1="0.173335" y1="0.638889" x2="37.9314" y2="46.9483" gradientUnits="userSpaceOnUse">
<stop stop-color="#7FB1EB"/>
<stop offset="0.33" stop-color="#89C3EA"/>
<stop offset="0.81" stop-color="#2F2F2F"/>
</linearGradient>
<linearGradient id="paint7_linear_170_7030" x1="5.88879" y1="18.3394" x2="6.27193" y2="39.7184" gradientUnits="userSpaceOnUse">
<stop stop-color="#7FC5EB"/>
<stop offset="0.33" stop-color="#89AEEA"/>
<stop offset="0.81" stop-color="#040410" stop-opacity="0"/>
</linearGradient>
<linearGradient id="paint8_linear_170_7030" x1="11.2512" y1="29.7453" x2="21.18" y2="29.7453" gradientUnits="userSpaceOnUse">
<stop stop-color="#3D5277"/>
<stop offset="1" stop-color="#4A6374"/>
</linearGradient>
<linearGradient id="paint9_linear_170_7030" x1="22.9229" y1="29.7453" x2="31.6106" y2="29.7453" gradientUnits="userSpaceOnUse">
<stop stop-color="#3D5277"/>
<stop offset="1" stop-color="#4A6374"/>
</linearGradient>
<linearGradient id="paint10_linear_170_7030" x1="32.3039" y1="29.7453" x2="42.2327" y2="29.7453" gradientUnits="userSpaceOnUse">
<stop stop-color="#3D5277"/>
<stop offset="1" stop-color="#4A6374"/>
</linearGradient>
</defs>
</svg>
