<svg width="50" height="51" viewBox="0 0 50 51" fill="none" xmlns="http://www.w3.org/2000/svg">
<g clip-path="url(#clip0_170_7059)">
<rect y="0.339355" width="50" height="50" rx="10" fill="#040410"/>
<g filter="url(#filter0_f_170_7059)">
<path d="M28.5647 19.6206C28.8043 19.6206 29.0426 19.5461 29.2431 19.4003C29.5831 19.1534 29.7619 18.7408 29.7097 18.3236L29.2883 14.9529L31.6106 12.4737C31.8981 12.1667 31.9958 11.7281 31.8658 11.3281C31.7358 10.9283 31.3989 10.631 30.986 10.5517L27.6501 9.91083L26.0098 6.93597C25.8068 6.56793 25.4196 6.33936 24.9993 6.33936C24.5788 6.33936 24.1918 6.56793 23.9889 6.93597L22.3486 9.91083L19.0124 10.5517C18.5998 10.6307 18.2626 10.9283 18.1326 11.3281C18.0029 11.7281 18.1005 12.1667 18.388 12.4737L20.7104 14.9529L20.2889 18.3236C20.2364 18.7408 20.4153 19.1534 20.7556 19.4003C21.0955 19.6475 21.5429 19.6902 21.9238 19.5113L24.9993 18.0691L28.0749 19.5113C28.2311 19.5846 28.3984 19.6206 28.5647 19.6206Z" stroke="url(#paint0_linear_170_7059)" stroke-width="5"/>
</g>
<path d="M29.096 19.1981L29.0962 19.198C29.3624 19.0047 29.5025 18.6815 29.4616 18.3546L29.4616 18.3546L29.0402 14.984L29.0256 14.8676L29.1058 14.782L31.4282 12.3028C31.6534 12.0623 31.7299 11.7189 31.628 11.4054L29.096 19.1981ZM29.096 19.1981C28.9392 19.3122 28.7526 19.3706 28.5647 19.3706C28.4345 19.3706 28.3035 19.3424 28.181 19.285L25.1055 17.8427L24.9993 17.793L24.8932 17.8427L21.8176 19.285L21.8175 19.2851C21.5192 19.4251 21.1688 19.3917 20.9026 19.1981L20.9024 19.1979C20.6359 19.0046 20.4959 18.6815 20.537 18.3548L20.537 18.3546L20.9585 14.984L20.973 14.8676L20.8928 14.782L18.5705 12.3028C18.3453 12.0623 18.2687 11.7189 18.3703 11.4053C18.4722 11.0921 18.7364 10.8591 19.0594 10.7972L19.0596 10.7972L22.3957 10.1563L22.5109 10.1342L22.5675 10.0315L24.2078 7.05669C24.3668 6.76841 24.6699 6.58936 24.9993 6.58936C25.3285 6.58936 25.6319 6.76844 25.7908 7.05669L27.4312 10.0315L27.4878 10.1342M29.096 19.1981L27.4878 10.1342M27.4878 10.1342L27.6029 10.1563M27.4878 10.1342L27.6029 10.1563M27.6029 10.1563L30.9388 10.7972C30.9388 10.7972 30.9388 10.7972 30.9388 10.7972M27.6029 10.1563L30.9388 10.7972M30.9388 10.7972C31.2623 10.8594 31.5262 11.0922 31.628 11.4053L30.9388 10.7972Z" fill="white"/>
<path d="M29.096 19.1981L29.0962 19.198C29.3624 19.0047 29.5025 18.6815 29.4616 18.3546L29.4616 18.3546L29.0402 14.984L29.0256 14.8676L29.1058 14.782L31.4282 12.3028C31.6534 12.0623 31.7299 11.7189 31.628 11.4054L29.096 19.1981ZM29.096 19.1981C28.9392 19.3122 28.7526 19.3706 28.5647 19.3706C28.4345 19.3706 28.3035 19.3424 28.181 19.285L25.1055 17.8427L24.9993 17.793L24.8932 17.8427L21.8176 19.285L21.8175 19.2851C21.5192 19.4251 21.1688 19.3917 20.9026 19.1981L20.9024 19.1979C20.6359 19.0046 20.4959 18.6815 20.537 18.3548L20.537 18.3546L20.9585 14.984L20.973 14.8676L20.8928 14.782L18.5705 12.3028C18.3453 12.0623 18.2687 11.7189 18.3703 11.4053C18.4722 11.0921 18.7364 10.8591 19.0594 10.7972L19.0596 10.7972L22.3957 10.1563L22.5109 10.1342L22.5675 10.0315L24.2078 7.05669C24.3668 6.76841 24.6699 6.58936 24.9993 6.58936C25.3285 6.58936 25.6319 6.76844 25.7908 7.05669L27.4312 10.0315L27.4878 10.1342M29.096 19.1981L27.4878 10.1342M27.4878 10.1342L27.6029 10.1563M27.4878 10.1342L27.6029 10.1563M27.6029 10.1563L30.9388 10.7972C30.9388 10.7972 30.9388 10.7972 30.9388 10.7972M27.6029 10.1563L30.9388 10.7972M30.9388 10.7972C31.2623 10.8594 31.5262 11.0922 31.628 11.4053L30.9388 10.7972Z" fill="black"/>
<path d="M29.096 19.1981L29.0962 19.198C29.3624 19.0047 29.5025 18.6815 29.4616 18.3546L29.4616 18.3546L29.0402 14.984L29.0256 14.8676L29.1058 14.782L31.4282 12.3028C31.6534 12.0623 31.7299 11.7189 31.628 11.4054L29.096 19.1981ZM29.096 19.1981C28.9392 19.3122 28.7526 19.3706 28.5647 19.3706C28.4345 19.3706 28.3035 19.3424 28.181 19.285L25.1055 17.8427L24.9993 17.793L24.8932 17.8427L21.8176 19.285L21.8175 19.2851C21.5192 19.4251 21.1688 19.3917 20.9026 19.1981L20.9024 19.1979C20.6359 19.0046 20.4959 18.6815 20.537 18.3548L20.537 18.3546L20.9585 14.984L20.973 14.8676L20.8928 14.782L18.5705 12.3028C18.3453 12.0623 18.2687 11.7189 18.3703 11.4053C18.4722 11.0921 18.7364 10.8591 19.0594 10.7972L19.0596 10.7972L22.3957 10.1563L22.5109 10.1342L22.5675 10.0315L24.2078 7.05669C24.3668 6.76841 24.6699 6.58936 24.9993 6.58936C25.3285 6.58936 25.6319 6.76844 25.7908 7.05669L27.4312 10.0315L27.4878 10.1342M29.096 19.1981L27.4878 10.1342M27.4878 10.1342L27.6029 10.1563M27.4878 10.1342L27.6029 10.1563M27.6029 10.1563L30.9388 10.7972C30.9388 10.7972 30.9388 10.7972 30.9388 10.7972M27.6029 10.1563L30.9388 10.7972M30.9388 10.7972C31.2623 10.8594 31.5262 11.0922 31.628 11.4053L30.9388 10.7972Z" fill="url(#paint1_radial_170_7059)"/>
<path d="M29.096 19.1981L29.0962 19.198C29.3624 19.0047 29.5025 18.6815 29.4616 18.3546L29.4616 18.3546L29.0402 14.984L29.0256 14.8676L29.1058 14.782L31.4282 12.3028C31.6534 12.0623 31.7299 11.7189 31.628 11.4054L29.096 19.1981ZM29.096 19.1981C28.9392 19.3122 28.7526 19.3706 28.5647 19.3706C28.4345 19.3706 28.3035 19.3424 28.181 19.285L25.1055 17.8427L24.9993 17.793L24.8932 17.8427L21.8176 19.285L21.8175 19.2851C21.5192 19.4251 21.1688 19.3917 20.9026 19.1981L20.9024 19.1979C20.6359 19.0046 20.4959 18.6815 20.537 18.3548L20.537 18.3546L20.9585 14.984L20.973 14.8676L20.8928 14.782L18.5705 12.3028C18.3453 12.0623 18.2687 11.7189 18.3703 11.4053C18.4722 11.0921 18.7364 10.8591 19.0594 10.7972L19.0596 10.7972L22.3957 10.1563L22.5109 10.1342L22.5675 10.0315L24.2078 7.05669C24.3668 6.76841 24.6699 6.58936 24.9993 6.58936C25.3285 6.58936 25.6319 6.76844 25.7908 7.05669L27.4312 10.0315L27.4878 10.1342M29.096 19.1981L27.4878 10.1342M27.4878 10.1342L27.6029 10.1563M27.4878 10.1342L27.6029 10.1563M27.6029 10.1563L30.9388 10.7972C30.9388 10.7972 30.9388 10.7972 30.9388 10.7972M27.6029 10.1563L30.9388 10.7972M30.9388 10.7972C31.2623 10.8594 31.5262 11.0922 31.628 11.4053L30.9388 10.7972Z" stroke="url(#paint2_linear_170_7059)" stroke-width="0.5"/>
<g style="mix-blend-mode:plus-lighter" filter="url(#filter1_f_170_7059)">
<path d="M28.6548 18.5916L28.6555 18.5911C28.7004 18.5585 28.7244 18.5036 28.7174 18.4477L28.7174 18.4477L28.296 15.077L28.2378 14.6116L28.5584 14.2693L30.8807 11.7902L28.6548 18.5916ZM28.6548 18.5916C28.629 18.6104 28.5976 18.6206 28.5647 18.6206C28.5429 18.6206 28.5208 18.616 28.4993 18.6059L25.4239 17.1637L24.9993 16.9646L24.5747 17.1637L21.4992 18.606L21.4987 18.6062C21.448 18.63 21.3888 18.6243 21.3436 18.5915L21.3428 18.5909C21.2978 18.5582 21.2742 18.5037 21.2811 18.4484L21.2812 18.4477L21.7027 15.077L21.7609 14.6116L21.4402 14.2693L19.1179 11.7902C19.1179 11.7902 19.1179 11.7901 19.1179 11.7901C19.1178 11.7901 19.1178 11.7901 19.1178 11.79C19.0796 11.7491 19.0664 11.6909 19.0837 11.6369C19.1012 11.5836 19.1462 11.5442 19.2005 11.5338L19.201 11.5337L22.5372 10.8929L22.9978 10.8044L23.2243 10.3937L24.8646 7.41884C24.8646 7.41884 24.8646 7.41883 24.8646 7.41883C24.8916 7.36983 24.9431 7.33936 24.9993 7.33936C25.0554 7.33936 25.1071 7.36996 25.1341 7.41883C25.1341 7.41883 25.1341 7.41884 25.1341 7.41884L26.7744 10.3937L27.0008 10.8044M28.6548 18.5916L27.0008 10.8044M27.0008 10.8044L27.4614 10.8929M27.0008 10.8044L27.4614 10.8929M27.4614 10.8929L30.7972 11.5337C30.7973 11.5337 30.7973 11.5337 30.7973 11.5337C30.8527 11.5444 30.8975 11.5841 30.9148 11.6373M27.4614 10.8929L30.9148 11.6373M30.9148 11.6373C30.9321 11.691 30.9191 11.7491 30.8808 11.79L30.9148 11.6373Z" stroke="url(#paint3_linear_170_7059)" stroke-width="2"/>
</g>
<path d="M44.3211 31.1193L44.1742 30.917C44.0171 31.0311 43.8306 31.0897 43.6427 31.0897C43.5124 31.0897 43.3815 31.0615 43.2594 31.0041L43.2593 31.0041L40.1834 29.5615L40.0773 29.5117L39.9711 29.5615L36.8956 31.004C36.5972 31.1439 36.2468 31.1104 35.9805 30.9168L35.9804 30.9167C35.7142 30.7234 35.5741 30.4005 35.615 30.0737L35.615 30.0737L36.0364 26.7027L36.051 26.5864L35.9708 26.5008L33.6485 24.0217C33.6485 24.0216 33.6485 24.0216 33.6485 24.0216C33.4234 23.781 33.3468 23.4374 33.4486 23.1244C33.5504 22.8112 33.8144 22.5781 34.1378 22.516C34.1378 22.516 34.1378 22.516 34.1378 22.516L37.4737 21.8751L37.5888 21.853L37.6455 21.7503L39.2858 18.7754C39.4447 18.4872 39.7481 18.3081 40.0773 18.3081C40.4067 18.3081 40.7098 18.4872 40.8688 18.7754L42.5091 21.7503L42.5657 21.853L42.6809 21.8751L46.017 22.516C46.3405 22.5781 46.6044 22.8112 46.7063 23.1244C46.8081 23.4375 46.7314 23.7812 46.5062 24.0215L46.5061 24.0215L44.1838 26.5011L44.1036 26.5867L44.1182 26.703L44.5396 30.0737L44.5396 30.0737C44.5805 30.4004 44.4404 30.7234 44.174 30.9171L44.3211 31.1193ZM44.3211 31.1193C44.1206 31.2649 43.8825 31.3397 43.6427 31.3397C43.4763 31.3397 43.3091 31.3036 43.1532 31.2304L44.3211 31.1193Z" fill="white"/>
<path d="M44.3211 31.1193L44.1742 30.917C44.0171 31.0311 43.8306 31.0897 43.6427 31.0897C43.5124 31.0897 43.3815 31.0615 43.2594 31.0041L43.2593 31.0041L40.1834 29.5615L40.0773 29.5117L39.9711 29.5615L36.8956 31.004C36.5972 31.1439 36.2468 31.1104 35.9805 30.9168L35.9804 30.9167C35.7142 30.7234 35.5741 30.4005 35.615 30.0737L35.615 30.0737L36.0364 26.7027L36.051 26.5864L35.9708 26.5008L33.6485 24.0217C33.6485 24.0216 33.6485 24.0216 33.6485 24.0216C33.4234 23.781 33.3468 23.4374 33.4486 23.1244C33.5504 22.8112 33.8144 22.5781 34.1378 22.516C34.1378 22.516 34.1378 22.516 34.1378 22.516L37.4737 21.8751L37.5888 21.853L37.6455 21.7503L39.2858 18.7754C39.4447 18.4872 39.7481 18.3081 40.0773 18.3081C40.4067 18.3081 40.7098 18.4872 40.8688 18.7754L42.5091 21.7503L42.5657 21.853L42.6809 21.8751L46.017 22.516C46.3405 22.5781 46.6044 22.8112 46.7063 23.1244C46.8081 23.4375 46.7314 23.7812 46.5062 24.0215L46.5061 24.0215L44.1838 26.5011L44.1036 26.5867L44.1182 26.703L44.5396 30.0737L44.5396 30.0737C44.5805 30.4004 44.4404 30.7234 44.174 30.9171L44.3211 31.1193ZM44.3211 31.1193C44.1206 31.2649 43.8825 31.3397 43.6427 31.3397C43.4763 31.3397 43.3091 31.3036 43.1532 31.2304L44.3211 31.1193Z" fill="black"/>
<path d="M44.3211 31.1193L44.1742 30.917C44.0171 31.0311 43.8306 31.0897 43.6427 31.0897C43.5124 31.0897 43.3815 31.0615 43.2594 31.0041L43.2593 31.0041L40.1834 29.5615L40.0773 29.5117L39.9711 29.5615L36.8956 31.004C36.5972 31.1439 36.2468 31.1104 35.9805 30.9168L35.9804 30.9167C35.7142 30.7234 35.5741 30.4005 35.615 30.0737L35.615 30.0737L36.0364 26.7027L36.051 26.5864L35.9708 26.5008L33.6485 24.0217C33.6485 24.0216 33.6485 24.0216 33.6485 24.0216C33.4234 23.781 33.3468 23.4374 33.4486 23.1244C33.5504 22.8112 33.8144 22.5781 34.1378 22.516C34.1378 22.516 34.1378 22.516 34.1378 22.516L37.4737 21.8751L37.5888 21.853L37.6455 21.7503L39.2858 18.7754C39.4447 18.4872 39.7481 18.3081 40.0773 18.3081C40.4067 18.3081 40.7098 18.4872 40.8688 18.7754L42.5091 21.7503L42.5657 21.853L42.6809 21.8751L46.017 22.516C46.3405 22.5781 46.6044 22.8112 46.7063 23.1244C46.8081 23.4375 46.7314 23.7812 46.5062 24.0215L46.5061 24.0215L44.1838 26.5011L44.1036 26.5867L44.1182 26.703L44.5396 30.0737L44.5396 30.0737C44.5805 30.4004 44.4404 30.7234 44.174 30.9171L44.3211 31.1193ZM44.3211 31.1193C44.1206 31.2649 43.8825 31.3397 43.6427 31.3397C43.4763 31.3397 43.3091 31.3036 43.1532 31.2304L44.3211 31.1193Z" fill="url(#paint4_radial_170_7059)"/>
<path d="M44.3211 31.1193L44.1742 30.917C44.0171 31.0311 43.8306 31.0897 43.6427 31.0897C43.5124 31.0897 43.3815 31.0615 43.2594 31.0041L43.2593 31.0041L40.1834 29.5615L40.0773 29.5117L39.9711 29.5615L36.8956 31.004C36.5972 31.1439 36.2468 31.1104 35.9805 30.9168L35.9804 30.9167C35.7142 30.7234 35.5741 30.4005 35.615 30.0737L35.615 30.0737L36.0364 26.7027L36.051 26.5864L35.9708 26.5008L33.6485 24.0217C33.6485 24.0216 33.6485 24.0216 33.6485 24.0216C33.4234 23.781 33.3468 23.4374 33.4486 23.1244C33.5504 22.8112 33.8144 22.5781 34.1378 22.516C34.1378 22.516 34.1378 22.516 34.1378 22.516L37.4737 21.8751L37.5888 21.853L37.6455 21.7503L39.2858 18.7754C39.4447 18.4872 39.7481 18.3081 40.0773 18.3081C40.4067 18.3081 40.7098 18.4872 40.8688 18.7754L42.5091 21.7503L42.5657 21.853L42.6809 21.8751L46.017 22.516C46.3405 22.5781 46.6044 22.8112 46.7063 23.1244C46.8081 23.4375 46.7314 23.7812 46.5062 24.0215L46.5061 24.0215L44.1838 26.5011L44.1036 26.5867L44.1182 26.703L44.5396 30.0737L44.5396 30.0737C44.5805 30.4004 44.4404 30.7234 44.174 30.9171L44.3211 31.1193ZM44.3211 31.1193C44.1206 31.2649 43.8825 31.3397 43.6427 31.3397C43.4763 31.3397 43.3091 31.3036 43.1532 31.2304L44.3211 31.1193Z" stroke="url(#paint5_linear_170_7059)" stroke-width="0.5"/>
<path d="M18.355 36.7506L18.4116 36.8533L18.5268 36.8754L21.8626 37.516C22.1862 37.5781 22.4503 37.8113 22.5518 38.1243C22.6534 38.4376 22.5769 38.7813 22.3518 39.0215L22.3517 39.0215L20.0293 41.5008L19.9492 41.5864L19.9637 41.7027L20.3855 45.0737C20.4263 45.4004 20.2863 45.7233 20.0197 45.917C19.8626 46.0311 19.6762 46.0897 19.4885 46.0897C19.358 46.0897 19.2271 46.0615 19.105 46.0041L19.1049 46.0041L16.0293 44.5615L15.9232 44.5117L15.817 44.5615L12.7411 46.0041L12.741 46.0041C12.4431 46.1441 12.0928 46.1105 11.8263 45.9171C11.5597 45.7234 11.4197 45.4004 11.4605 45.0737L11.4605 45.0737L11.882 41.7027L11.8965 41.5864L11.8164 41.5008L9.49429 39.0215L9.49423 39.0215C9.26913 38.7813 9.19255 38.4376 9.29419 38.1243C9.3961 37.8111 9.66001 37.5781 9.9834 37.516L13.3195 36.8754L13.4347 36.8533L13.4913 36.7506L15.1316 33.7757C15.2907 33.4874 15.5938 33.3081 15.9232 33.3081C16.2522 33.3081 16.5557 33.4874 16.7147 33.7757L18.355 36.7506Z" fill="white"/>
<path d="M18.355 36.7506L18.4116 36.8533L18.5268 36.8754L21.8626 37.516C22.1862 37.5781 22.4503 37.8113 22.5518 38.1243C22.6534 38.4376 22.5769 38.7813 22.3518 39.0215L22.3517 39.0215L20.0293 41.5008L19.9492 41.5864L19.9637 41.7027L20.3855 45.0737C20.4263 45.4004 20.2863 45.7233 20.0197 45.917C19.8626 46.0311 19.6762 46.0897 19.4885 46.0897C19.358 46.0897 19.2271 46.0615 19.105 46.0041L19.1049 46.0041L16.0293 44.5615L15.9232 44.5117L15.817 44.5615L12.7411 46.0041L12.741 46.0041C12.4431 46.1441 12.0928 46.1105 11.8263 45.9171C11.5597 45.7234 11.4197 45.4004 11.4605 45.0737L11.4605 45.0737L11.882 41.7027L11.8965 41.5864L11.8164 41.5008L9.49429 39.0215L9.49423 39.0215C9.26913 38.7813 9.19255 38.4376 9.29419 38.1243C9.3961 37.8111 9.66001 37.5781 9.9834 37.516L13.3195 36.8754L13.4347 36.8533L13.4913 36.7506L15.1316 33.7757C15.2907 33.4874 15.5938 33.3081 15.9232 33.3081C16.2522 33.3081 16.5557 33.4874 16.7147 33.7757L18.355 36.7506Z" fill="black"/>
<path d="M18.355 36.7506L18.4116 36.8533L18.5268 36.8754L21.8626 37.516C22.1862 37.5781 22.4503 37.8113 22.5518 38.1243C22.6534 38.4376 22.5769 38.7813 22.3518 39.0215L22.3517 39.0215L20.0293 41.5008L19.9492 41.5864L19.9637 41.7027L20.3855 45.0737C20.4263 45.4004 20.2863 45.7233 20.0197 45.917C19.8626 46.0311 19.6762 46.0897 19.4885 46.0897C19.358 46.0897 19.2271 46.0615 19.105 46.0041L19.1049 46.0041L16.0293 44.5615L15.9232 44.5117L15.817 44.5615L12.7411 46.0041L12.741 46.0041C12.4431 46.1441 12.0928 46.1105 11.8263 45.9171C11.5597 45.7234 11.4197 45.4004 11.4605 45.0737L11.4605 45.0737L11.882 41.7027L11.8965 41.5864L11.8164 41.5008L9.49429 39.0215L9.49423 39.0215C9.26913 38.7813 9.19255 38.4376 9.29419 38.1243C9.3961 37.8111 9.66001 37.5781 9.9834 37.516L13.3195 36.8754L13.4347 36.8533L13.4913 36.7506L15.1316 33.7757C15.2907 33.4874 15.5938 33.3081 15.9232 33.3081C16.2522 33.3081 16.5557 33.4874 16.7147 33.7757L18.355 36.7506Z" fill="url(#paint6_radial_170_7059)"/>
<path d="M18.355 36.7506L18.4116 36.8533L18.5268 36.8754L21.8626 37.516C22.1862 37.5781 22.4503 37.8113 22.5518 38.1243C22.6534 38.4376 22.5769 38.7813 22.3518 39.0215L22.3517 39.0215L20.0293 41.5008L19.9492 41.5864L19.9637 41.7027L20.3855 45.0737C20.4263 45.4004 20.2863 45.7233 20.0197 45.917C19.8626 46.0311 19.6762 46.0897 19.4885 46.0897C19.358 46.0897 19.2271 46.0615 19.105 46.0041L19.1049 46.0041L16.0293 44.5615L15.9232 44.5117L15.817 44.5615L12.7411 46.0041L12.741 46.0041C12.4431 46.1441 12.0928 46.1105 11.8263 45.9171C11.5597 45.7234 11.4197 45.4004 11.4605 45.0737L11.4605 45.0737L11.882 41.7027L11.8965 41.5864L11.8164 41.5008L9.49429 39.0215L9.49423 39.0215C9.26913 38.7813 9.19255 38.4376 9.29419 38.1243C9.3961 37.8111 9.66001 37.5781 9.9834 37.516L13.3195 36.8754L13.4347 36.8533L13.4913 36.7506L15.1316 33.7757C15.2907 33.4874 15.5938 33.3081 15.9232 33.3081C16.2522 33.3081 16.5557 33.4874 16.7147 33.7757L18.355 36.7506Z" stroke="url(#paint7_linear_170_7059)" stroke-width="0.5"/>
<path d="M36.5657 36.8533L36.5091 36.7506L34.8688 33.7757C34.7098 33.4874 34.4066 33.3081 34.0773 33.3081C33.7484 33.3081 33.4452 33.4872 33.2858 33.7757L36.5657 36.8533ZM36.5657 36.8533L36.6809 36.8754M36.5657 36.8533L36.6809 36.8754M36.6809 36.8754L40.017 37.516L36.6809 36.8754ZM31.6455 36.7506L33.2857 33.7759L38.1742 45.917C38.0171 46.0311 37.8306 46.0897 37.6427 46.0897C37.5124 46.0897 37.3815 46.0615 37.2594 46.0041L37.2593 46.0041L34.1834 44.5615L34.0773 44.5117L33.9711 44.5615L30.8956 46.0041L30.8955 46.0041C30.5973 46.1441 30.2469 46.1105 29.9805 45.9171C29.7141 45.7234 29.5741 45.4004 29.615 45.0737L29.615 45.0737L30.0364 41.7027L30.051 41.5864L29.9708 41.5008L27.6485 39.0216C27.6484 39.0216 27.6484 39.0215 27.6484 39.0215C27.4235 38.7812 27.3468 38.4375 27.4486 38.1244C27.5504 37.8112 27.8144 37.5781 28.1378 37.516L31.4737 36.8754L31.5888 36.8533L31.6455 36.7506Z" fill="white"/>
<path d="M36.5657 36.8533L36.5091 36.7506L34.8688 33.7757C34.7098 33.4874 34.4066 33.3081 34.0773 33.3081C33.7484 33.3081 33.4452 33.4872 33.2858 33.7757L36.5657 36.8533ZM36.5657 36.8533L36.6809 36.8754M36.5657 36.8533L36.6809 36.8754M36.6809 36.8754L40.017 37.516L36.6809 36.8754ZM31.6455 36.7506L33.2857 33.7759L38.1742 45.917C38.0171 46.0311 37.8306 46.0897 37.6427 46.0897C37.5124 46.0897 37.3815 46.0615 37.2594 46.0041L37.2593 46.0041L34.1834 44.5615L34.0773 44.5117L33.9711 44.5615L30.8956 46.0041L30.8955 46.0041C30.5973 46.1441 30.2469 46.1105 29.9805 45.9171C29.7141 45.7234 29.5741 45.4004 29.615 45.0737L29.615 45.0737L30.0364 41.7027L30.051 41.5864L29.9708 41.5008L27.6485 39.0216C27.6484 39.0216 27.6484 39.0215 27.6484 39.0215C27.4235 38.7812 27.3468 38.4375 27.4486 38.1244C27.5504 37.8112 27.8144 37.5781 28.1378 37.516L31.4737 36.8754L31.5888 36.8533L31.6455 36.7506Z" fill="black"/>
<path d="M36.5657 36.8533L36.5091 36.7506L34.8688 33.7757C34.7098 33.4874 34.4066 33.3081 34.0773 33.3081C33.7484 33.3081 33.4452 33.4872 33.2858 33.7757L36.5657 36.8533ZM36.5657 36.8533L36.6809 36.8754M36.5657 36.8533L36.6809 36.8754M36.6809 36.8754L40.017 37.516L36.6809 36.8754ZM31.6455 36.7506L33.2857 33.7759L38.1742 45.917C38.0171 46.0311 37.8306 46.0897 37.6427 46.0897C37.5124 46.0897 37.3815 46.0615 37.2594 46.0041L37.2593 46.0041L34.1834 44.5615L34.0773 44.5117L33.9711 44.5615L30.8956 46.0041L30.8955 46.0041C30.5973 46.1441 30.2469 46.1105 29.9805 45.9171C29.7141 45.7234 29.5741 45.4004 29.615 45.0737L29.615 45.0737L30.0364 41.7027L30.051 41.5864L29.9708 41.5008L27.6485 39.0216C27.6484 39.0216 27.6484 39.0215 27.6484 39.0215C27.4235 38.7812 27.3468 38.4375 27.4486 38.1244C27.5504 37.8112 27.8144 37.5781 28.1378 37.516L31.4737 36.8754L31.5888 36.8533L31.6455 36.7506Z" fill="url(#paint8_radial_170_7059)"/>
<path d="M36.5657 36.8533L36.5091 36.7506L34.8688 33.7757C34.7098 33.4874 34.4066 33.3081 34.0773 33.3081C33.7484 33.3081 33.4452 33.4872 33.2858 33.7757L36.5657 36.8533ZM36.5657 36.8533L36.6809 36.8754M36.5657 36.8533L36.6809 36.8754M36.6809 36.8754L40.017 37.516L36.6809 36.8754ZM31.6455 36.7506L33.2857 33.7759L38.1742 45.917C38.0171 46.0311 37.8306 46.0897 37.6427 46.0897C37.5124 46.0897 37.3815 46.0615 37.2594 46.0041L37.2593 46.0041L34.1834 44.5615L34.0773 44.5117L33.9711 44.5615L30.8956 46.0041L30.8955 46.0041C30.5973 46.1441 30.2469 46.1105 29.9805 45.9171C29.7141 45.7234 29.5741 45.4004 29.615 45.0737L29.615 45.0737L30.0364 41.7027L30.051 41.5864L29.9708 41.5008L27.6485 39.0216C27.6484 39.0216 27.6484 39.0215 27.6484 39.0215C27.4235 38.7812 27.3468 38.4375 27.4486 38.1244C27.5504 37.8112 27.8144 37.5781 28.1378 37.516L31.4737 36.8754L31.5888 36.8533L31.6455 36.7506Z" stroke="url(#paint9_linear_170_7059)" stroke-width="0.5"/>
<path d="M13.105 31.0041L13.1049 31.0041L10.0293 29.5615L9.92317 29.5117L9.81701 29.5615L6.74114 31.0041L6.74112 31.0041C6.44308 31.1439 6.09239 31.1104 5.8261 30.9168L5.82599 30.9167C5.55974 30.7234 5.41966 30.4005 5.46054 30.0737L5.46054 30.0737L5.88199 26.7027L5.89653 26.5864L5.81637 26.5008L3.49411 24.0217C3.49409 24.0216 3.49407 24.0216 3.49406 24.0216C3.26907 23.781 3.19258 23.4375 3.2942 23.1243C3.39611 22.8111 3.66002 22.5781 3.9834 22.516L7.31957 21.8751L7.43472 21.853L7.49133 21.7503L9.13134 18.7757C9.13134 18.7757 9.13135 18.7757 9.13135 18.7757C9.29035 18.4874 9.59379 18.3081 9.92286 18.3081C10.2522 18.3081 10.5553 18.4874 10.7144 18.7757L12.3547 21.7506L12.4113 21.8533L12.5265 21.8754L15.8626 22.516C16.186 22.5781 16.45 22.8112 16.5519 23.1244C16.6537 23.4375 16.577 23.7812 16.3518 24.0215L16.3517 24.0216L14.0296 26.5011L13.9495 26.5867L13.964 26.703L14.3855 30.0737L14.3855 30.0737C14.4264 30.4004 14.2863 30.7234 14.0199 30.9171C13.8624 31.0312 13.676 31.0897 13.4885 31.0897C13.358 31.0897 13.2271 31.0615 13.105 31.0041Z" fill="white"/>
<path d="M13.105 31.0041L13.1049 31.0041L10.0293 29.5615L9.92317 29.5117L9.81701 29.5615L6.74114 31.0041L6.74112 31.0041C6.44308 31.1439 6.09239 31.1104 5.8261 30.9168L5.82599 30.9167C5.55974 30.7234 5.41966 30.4005 5.46054 30.0737L5.46054 30.0737L5.88199 26.7027L5.89653 26.5864L5.81637 26.5008L3.49411 24.0217C3.49409 24.0216 3.49407 24.0216 3.49406 24.0216C3.26907 23.781 3.19258 23.4375 3.2942 23.1243C3.39611 22.8111 3.66002 22.5781 3.9834 22.516L7.31957 21.8751L7.43472 21.853L7.49133 21.7503L9.13134 18.7757C9.13134 18.7757 9.13135 18.7757 9.13135 18.7757C9.29035 18.4874 9.59379 18.3081 9.92286 18.3081C10.2522 18.3081 10.5553 18.4874 10.7144 18.7757L12.3547 21.7506L12.4113 21.8533L12.5265 21.8754L15.8626 22.516C16.186 22.5781 16.45 22.8112 16.5519 23.1244C16.6537 23.4375 16.577 23.7812 16.3518 24.0215L16.3517 24.0216L14.0296 26.5011L13.9495 26.5867L13.964 26.703L14.3855 30.0737L14.3855 30.0737C14.4264 30.4004 14.2863 30.7234 14.0199 30.9171C13.8624 31.0312 13.676 31.0897 13.4885 31.0897C13.358 31.0897 13.2271 31.0615 13.105 31.0041Z" fill="black"/>
<path d="M13.105 31.0041L13.1049 31.0041L10.0293 29.5615L9.92317 29.5117L9.81701 29.5615L6.74114 31.0041L6.74112 31.0041C6.44308 31.1439 6.09239 31.1104 5.8261 30.9168L5.82599 30.9167C5.55974 30.7234 5.41966 30.4005 5.46054 30.0737L5.46054 30.0737L5.88199 26.7027L5.89653 26.5864L5.81637 26.5008L3.49411 24.0217C3.49409 24.0216 3.49407 24.0216 3.49406 24.0216C3.26907 23.781 3.19258 23.4375 3.2942 23.1243C3.39611 22.8111 3.66002 22.5781 3.9834 22.516L7.31957 21.8751L7.43472 21.853L7.49133 21.7503L9.13134 18.7757C9.13134 18.7757 9.13135 18.7757 9.13135 18.7757C9.29035 18.4874 9.59379 18.3081 9.92286 18.3081C10.2522 18.3081 10.5553 18.4874 10.7144 18.7757L12.3547 21.7506L12.4113 21.8533L12.5265 21.8754L15.8626 22.516C16.186 22.5781 16.45 22.8112 16.5519 23.1244C16.6537 23.4375 16.577 23.7812 16.3518 24.0215L16.3517 24.0216L14.0296 26.5011L13.9495 26.5867L13.964 26.703L14.3855 30.0737L14.3855 30.0737C14.4264 30.4004 14.2863 30.7234 14.0199 30.9171C13.8624 31.0312 13.676 31.0897 13.4885 31.0897C13.358 31.0897 13.2271 31.0615 13.105 31.0041Z" fill="url(#paint10_radial_170_7059)"/>
<path d="M13.105 31.0041L13.1049 31.0041L10.0293 29.5615L9.92317 29.5117L9.81701 29.5615L6.74114 31.0041L6.74112 31.0041C6.44308 31.1439 6.09239 31.1104 5.8261 30.9168L5.82599 30.9167C5.55974 30.7234 5.41966 30.4005 5.46054 30.0737L5.46054 30.0737L5.88199 26.7027L5.89653 26.5864L5.81637 26.5008L3.49411 24.0217C3.49409 24.0216 3.49407 24.0216 3.49406 24.0216C3.26907 23.781 3.19258 23.4375 3.2942 23.1243C3.39611 22.8111 3.66002 22.5781 3.9834 22.516L7.31957 21.8751L7.43472 21.853L7.49133 21.7503L9.13134 18.7757C9.13134 18.7757 9.13135 18.7757 9.13135 18.7757C9.29035 18.4874 9.59379 18.3081 9.92286 18.3081C10.2522 18.3081 10.5553 18.4874 10.7144 18.7757L12.3547 21.7506L12.4113 21.8533L12.5265 21.8754L15.8626 22.516C16.186 22.5781 16.45 22.8112 16.5519 23.1244C16.6537 23.4375 16.577 23.7812 16.3518 24.0215L16.3517 24.0216L14.0296 26.5011L13.9495 26.5867L13.964 26.703L14.3855 30.0737L14.3855 30.0737C14.4264 30.4004 14.2863 30.7234 14.0199 30.9171C13.8624 31.0312 13.676 31.0897 13.4885 31.0897C13.358 31.0897 13.2271 31.0615 13.105 31.0041Z" stroke="url(#paint11_linear_170_7059)" stroke-width="0.5"/>
</g>
<defs>
<filter id="filter0_f_170_7059" x="10.5762" y="-1.16064" width="28.8462" height="28.2812" filterUnits="userSpaceOnUse" color-interpolation-filters="sRGB">
<feFlood flood-opacity="0" result="BackgroundImageFix"/>
<feBlend mode="normal" in="SourceGraphic" in2="BackgroundImageFix" result="shape"/>
<feGaussianBlur stdDeviation="2.5" result="effect1_foregroundBlur_170_7059"/>
</filter>
<filter id="filter1_f_170_7059" x="17.0762" y="5.33936" width="15.8462" height="15.2812" filterUnits="userSpaceOnUse" color-interpolation-filters="sRGB">
<feFlood flood-opacity="0" result="BackgroundImageFix"/>
<feBlend mode="normal" in="SourceGraphic" in2="BackgroundImageFix" result="shape"/>
<feGaussianBlur stdDeviation="0.5" result="effect1_foregroundBlur_170_7059"/>
</filter>
<linearGradient id="paint0_linear_170_7059" x1="15.0844" y1="8.90995" x2="21.1308" y2="18.0341" gradientUnits="userSpaceOnUse">
<stop stop-color="#7FC5EB"/>
<stop offset="0.33" stop-color="#89AEEA"/>
<stop offset="0.81" stop-color="#040410"/>
</linearGradient>
<radialGradient id="paint1_radial_170_7059" cx="0" cy="0" r="1" gradientUnits="userSpaceOnUse" gradientTransform="translate(-0.437557 6.33935) rotate(23.2573) scale(33.6356 17.6202)">
<stop stop-color="#34678E"/>
<stop offset="1" stop-color="#040410"/>
</radialGradient>
<linearGradient id="paint2_linear_170_7059" x1="15.9531" y1="-1.50746" x2="35.4694" y2="15.5665" gradientUnits="userSpaceOnUse">
<stop stop-color="#7FB1EB"/>
<stop offset="0.33" stop-color="#89C3EA"/>
<stop offset="0.81" stop-color="#2F2F2F"/>
</linearGradient>
<linearGradient id="paint3_linear_170_7059" x1="16.5363" y1="6.33936" x2="18.6669" y2="17.5436" gradientUnits="userSpaceOnUse">
<stop stop-color="#7FC5EB"/>
<stop offset="0.33" stop-color="#89AEEA"/>
<stop offset="0.81" stop-color="#040410" stop-opacity="0"/>
</linearGradient>
<radialGradient id="paint4_radial_170_7059" cx="0" cy="0" r="1" gradientUnits="userSpaceOnUse" gradientTransform="translate(14.6405 18.0581) rotate(23.2574) scale(33.6359 17.6204)">
<stop stop-color="#34678E"/>
<stop offset="1" stop-color="#040410"/>
</radialGradient>
<linearGradient id="paint5_linear_170_7059" x1="31.0312" y1="10.2112" x2="50.5477" y2="27.2852" gradientUnits="userSpaceOnUse">
<stop stop-color="#7FB1EB"/>
<stop offset="0.33" stop-color="#89C3EA"/>
<stop offset="0.81" stop-color="#2F2F2F"/>
</linearGradient>
<radialGradient id="paint6_radial_170_7059" cx="0" cy="0" r="1" gradientUnits="userSpaceOnUse" gradientTransform="translate(-9.51347 33.0581) rotate(23.2579) scale(33.6353 17.6204)">
<stop stop-color="#34678E"/>
<stop offset="1" stop-color="#040410"/>
</radialGradient>
<linearGradient id="paint7_linear_170_7059" x1="6.87695" y1="25.2112" x2="26.3935" y2="42.2848" gradientUnits="userSpaceOnUse">
<stop stop-color="#7FB1EB"/>
<stop offset="0.33" stop-color="#89C3EA"/>
<stop offset="0.81" stop-color="#2F2F2F"/>
</linearGradient>
<radialGradient id="paint8_radial_170_7059" cx="0" cy="0" r="1" gradientUnits="userSpaceOnUse" gradientTransform="translate(8.64079 33.0581) rotate(23.2579) scale(33.6354 17.6204)">
<stop stop-color="#34678E"/>
<stop offset="1" stop-color="#040410"/>
</radialGradient>
<linearGradient id="paint9_linear_170_7059" x1="25.0312" y1="25.2112" x2="44.5478" y2="42.2848" gradientUnits="userSpaceOnUse">
<stop stop-color="#7FB1EB"/>
<stop offset="0.33" stop-color="#89C3EA"/>
<stop offset="0.81" stop-color="#2F2F2F"/>
</linearGradient>
<radialGradient id="paint10_radial_170_7059" cx="0" cy="0" r="1" gradientUnits="userSpaceOnUse" gradientTransform="translate(-15.5137 18.0581) rotate(23.2576) scale(33.6356 17.6203)">
<stop stop-color="#34678E"/>
<stop offset="1" stop-color="#040410"/>
</radialGradient>
<linearGradient id="paint11_linear_170_7059" x1="0.876925" y1="10.2112" x2="20.3934" y2="27.285" gradientUnits="userSpaceOnUse">
<stop stop-color="#7FB1EB"/>
<stop offset="0.33" stop-color="#89C3EA"/>
<stop offset="0.81" stop-color="#2F2F2F"/>
</linearGradient>
<clipPath id="clip0_170_7059">
<rect width="50" height="50" fill="white" transform="translate(0 0.339355)"/>
</clipPath>
</defs>
</svg>
