<svg width="50" height="51" viewBox="0 0 50 51" fill="none" xmlns="http://www.w3.org/2000/svg">
<g clip-path="url(#clip0_170_7008)">
<rect y="0.339355" width="50" height="50" rx="10" fill="#040410"/>
<path d="M45.3627 16.9978C45.3627 20.0131 42.9183 22.4575 39.903 22.4575C36.8877 22.4575 34.4434 20.0131 34.4434 16.9978C34.4434 13.9825 36.8877 11.5381 39.903 11.5381C42.9183 11.5381 45.3627 13.9825 45.3627 16.9978Z" fill="black"/>
<path d="M45.3627 16.9978C45.3627 20.0131 42.9183 22.4575 39.903 22.4575C36.8877 22.4575 34.4434 20.0131 34.4434 16.9978C34.4434 13.9825 36.8877 11.5381 39.903 11.5381C42.9183 11.5381 45.3627 13.9825 45.3627 16.9978Z" fill="url(#paint0_radial_170_7008)"/>
<path d="M45.3627 16.9978C45.3627 20.0131 42.9183 22.4575 39.903 22.4575C36.8877 22.4575 34.4434 20.0131 34.4434 16.9978C34.4434 13.9825 36.8877 11.5381 39.903 11.5381C42.9183 11.5381 45.3627 13.9825 45.3627 16.9978Z" stroke="black" stroke-width="0.5"/>
<path d="M45.3627 16.9978C45.3627 20.0131 42.9183 22.4575 39.903 22.4575C36.8877 22.4575 34.4434 20.0131 34.4434 16.9978C34.4434 13.9825 36.8877 11.5381 39.903 11.5381C42.9183 11.5381 45.3627 13.9825 45.3627 16.9978Z" stroke="url(#paint1_linear_170_7008)" stroke-width="0.5"/>
<g style="mix-blend-mode:plus-lighter" filter="url(#filter0_f_170_7008)">
<path d="M44.7165 16.9992C44.7165 19.6571 42.5619 21.8117 39.904 21.8117C37.2462 21.8117 35.0916 19.6571 35.0916 16.9992C35.0916 14.3414 37.2462 12.1868 39.904 12.1868C42.5619 12.1868 44.7165 14.3414 44.7165 16.9992Z" stroke="url(#paint2_linear_170_7008)" stroke-width="1.79447"/>
</g>
<path d="M39.0931 30.8643L39.0931 30.8637C39.0892 29.2717 38.8273 27.6916 38.3183 26.1847C39.5936 26.0232 40.8226 25.5985 41.9271 24.9364C43.0322 24.2739 43.9863 23.3893 44.7298 22.3398C46.0243 23.7833 46.7457 25.6557 46.7498 27.6017C46.7498 27.6019 46.7498 27.602 46.7498 27.6022L46.7498 30.8643C46.7498 32.096 46.2605 33.2772 45.3896 34.1482C44.5187 35.0191 43.3375 35.5084 42.1058 35.5084H39.0931L39.0931 30.8643Z" fill="black"/>
<path d="M39.0931 30.8643L39.0931 30.8637C39.0892 29.2717 38.8273 27.6916 38.3183 26.1847C39.5936 26.0232 40.8226 25.5985 41.9271 24.9364C43.0322 24.2739 43.9863 23.3893 44.7298 22.3398C46.0243 23.7833 46.7457 25.6557 46.7498 27.6017C46.7498 27.6019 46.7498 27.602 46.7498 27.6022L46.7498 30.8643C46.7498 32.096 46.2605 33.2772 45.3896 34.1482C44.5187 35.0191 43.3375 35.5084 42.1058 35.5084H39.0931L39.0931 30.8643Z" fill="url(#paint3_radial_170_7008)"/>
<path d="M39.0931 30.8643L39.0931 30.8637C39.0892 29.2717 38.8273 27.6916 38.3183 26.1847C39.5936 26.0232 40.8226 25.5985 41.9271 24.9364C43.0322 24.2739 43.9863 23.3893 44.7298 22.3398C46.0243 23.7833 46.7457 25.6557 46.7498 27.6017C46.7498 27.6019 46.7498 27.602 46.7498 27.6022L46.7498 30.8643C46.7498 32.096 46.2605 33.2772 45.3896 34.1482C44.5187 35.0191 43.3375 35.5084 42.1058 35.5084H39.0931L39.0931 30.8643Z" stroke="black" stroke-width="0.5"/>
<path d="M39.0931 30.8643L39.0931 30.8637C39.0892 29.2717 38.8273 27.6916 38.3183 26.1847C39.5936 26.0232 40.8226 25.5985 41.9271 24.9364C43.0322 24.2739 43.9863 23.3893 44.7298 22.3398C46.0243 23.7833 46.7457 25.6557 46.7498 27.6017C46.7498 27.6019 46.7498 27.602 46.7498 27.6022L46.7498 30.8643C46.7498 32.096 46.2605 33.2772 45.3896 34.1482C44.5187 35.0191 43.3375 35.5084 42.1058 35.5084H39.0931L39.0931 30.8643Z" stroke="url(#paint4_linear_170_7008)" stroke-width="0.5"/>
<path d="M15.9994 16.9978C15.9994 20.0131 13.5551 22.4575 10.5398 22.4575C7.52446 22.4575 5.08008 20.0131 5.08008 16.9978C5.08008 13.9825 7.52446 11.5381 10.5398 11.5381C13.5551 11.5381 15.9994 13.9825 15.9994 16.9978Z" fill="black"/>
<path d="M15.9994 16.9978C15.9994 20.0131 13.5551 22.4575 10.5398 22.4575C7.52446 22.4575 5.08008 20.0131 5.08008 16.9978C5.08008 13.9825 7.52446 11.5381 10.5398 11.5381C13.5551 11.5381 15.9994 13.9825 15.9994 16.9978Z" fill="url(#paint5_radial_170_7008)"/>
<path d="M15.9994 16.9978C15.9994 20.0131 13.5551 22.4575 10.5398 22.4575C7.52446 22.4575 5.08008 20.0131 5.08008 16.9978C5.08008 13.9825 7.52446 11.5381 10.5398 11.5381C13.5551 11.5381 15.9994 13.9825 15.9994 16.9978Z" stroke="black" stroke-width="0.5"/>
<path d="M15.9994 16.9978C15.9994 20.0131 13.5551 22.4575 10.5398 22.4575C7.52446 22.4575 5.08008 20.0131 5.08008 16.9978C5.08008 13.9825 7.52446 11.5381 10.5398 11.5381C13.5551 11.5381 15.9994 13.9825 15.9994 16.9978Z" stroke="url(#paint6_linear_170_7008)" stroke-width="0.5"/>
<g style="mix-blend-mode:plus-lighter" filter="url(#filter1_f_170_7008)">
<path d="M15.3512 16.9992C15.3512 19.6571 13.1966 21.8117 10.5388 21.8117C7.88094 21.8117 5.72634 19.6571 5.72634 16.9992C5.72634 14.3414 7.88094 12.1868 10.5388 12.1868C13.1966 12.1868 15.3512 14.3414 15.3512 16.9992Z" stroke="url(#paint7_linear_170_7008)" stroke-width="1.79447"/>
</g>
<path d="M10.4526 30.8643V35.5084H7.43991C6.20824 35.5084 5.02702 35.0191 4.1561 34.1482C3.28518 33.2772 2.7959 32.096 2.7959 30.8643V27.6019C2.79994 25.6558 3.52138 23.7834 4.81589 22.3398C5.55942 23.3893 6.51356 24.2739 7.61865 24.9364C8.72311 25.5985 9.95216 26.0232 11.2274 26.1847C10.7184 27.6916 10.4565 29.2717 10.4526 30.8637V30.8643Z" fill="black"/>
<path d="M10.4526 30.8643V35.5084H7.43991C6.20824 35.5084 5.02702 35.0191 4.1561 34.1482C3.28518 33.2772 2.7959 32.096 2.7959 30.8643V27.6019C2.79994 25.6558 3.52138 23.7834 4.81589 22.3398C5.55942 23.3893 6.51356 24.2739 7.61865 24.9364C8.72311 25.5985 9.95216 26.0232 11.2274 26.1847C10.7184 27.6916 10.4565 29.2717 10.4526 30.8637V30.8643Z" fill="url(#paint8_radial_170_7008)"/>
<path d="M10.4526 30.8643V35.5084H7.43991C6.20824 35.5084 5.02702 35.0191 4.1561 34.1482C3.28518 33.2772 2.7959 32.096 2.7959 30.8643V27.6019C2.79994 25.6558 3.52138 23.7834 4.81589 22.3398C5.55942 23.3893 6.51356 24.2739 7.61865 24.9364C8.72311 25.5985 9.95216 26.0232 11.2274 26.1847C10.7184 27.6916 10.4565 29.2717 10.4526 30.8637V30.8643Z" stroke="black" stroke-width="0.5"/>
<path d="M10.4526 30.8643V35.5084H7.43991C6.20824 35.5084 5.02702 35.0191 4.1561 34.1482C3.28518 33.2772 2.7959 32.096 2.7959 30.8643V27.6019C2.79994 25.6558 3.52138 23.7834 4.81589 22.3398C5.55942 23.3893 6.51356 24.2739 7.61865 24.9364C8.72311 25.5985 9.95216 26.0232 11.2274 26.1847C10.7184 27.6916 10.4565 29.2717 10.4526 30.8637V30.8643Z" stroke="url(#paint9_linear_170_7008)" stroke-width="0.5"/>
<path d="M29.4748 25.1291C30.9382 24.4511 32.2443 23.4775 33.3115 22.2706C34.5465 23.2902 35.5486 24.5641 36.2488 26.0066C36.9838 27.5207 37.367 29.1814 37.37 30.8645V37.3894C37.37 38.6211 36.8807 39.8023 36.0098 40.6732C35.1388 41.5441 33.9576 42.0334 32.726 42.0334H16.4126C15.1809 42.0334 13.9997 41.5441 13.1288 40.6732C12.2578 39.8023 11.7686 38.6211 11.7686 37.3894V30.8643C11.7715 29.1813 12.1548 27.5207 12.8897 26.0066C13.5899 24.5641 14.592 23.2902 15.827 22.2706C16.8942 23.4775 18.2003 24.4511 19.6637 25.1291C21.201 25.8414 22.875 26.2103 24.5693 26.2103C26.2635 26.2103 27.9375 25.8414 29.4748 25.1291Z" fill="black"/>
<path d="M29.4748 25.1291C30.9382 24.4511 32.2443 23.4775 33.3115 22.2706C34.5465 23.2902 35.5486 24.5641 36.2488 26.0066C36.9838 27.5207 37.367 29.1814 37.37 30.8645V37.3894C37.37 38.6211 36.8807 39.8023 36.0098 40.6732C35.1388 41.5441 33.9576 42.0334 32.726 42.0334H16.4126C15.1809 42.0334 13.9997 41.5441 13.1288 40.6732C12.2578 39.8023 11.7686 38.6211 11.7686 37.3894V30.8643C11.7715 29.1813 12.1548 27.5207 12.8897 26.0066C13.5899 24.5641 14.592 23.2902 15.827 22.2706C16.8942 23.4775 18.2003 24.4511 19.6637 25.1291C21.201 25.8414 22.875 26.2103 24.5693 26.2103C26.2635 26.2103 27.9375 25.8414 29.4748 25.1291Z" fill="url(#paint10_radial_170_7008)"/>
<path d="M29.4748 25.1291C30.9382 24.4511 32.2443 23.4775 33.3115 22.2706C34.5465 23.2902 35.5486 24.5641 36.2488 26.0066C36.9838 27.5207 37.367 29.1814 37.37 30.8645V37.3894C37.37 38.6211 36.8807 39.8023 36.0098 40.6732C35.1388 41.5441 33.9576 42.0334 32.726 42.0334H16.4126C15.1809 42.0334 13.9997 41.5441 13.1288 40.6732C12.2578 39.8023 11.7686 38.6211 11.7686 37.3894V30.8643C11.7715 29.1813 12.1548 27.5207 12.8897 26.0066C13.5899 24.5641 14.592 23.2902 15.827 22.2706C16.8942 23.4775 18.2003 24.4511 19.6637 25.1291C21.201 25.8414 22.875 26.2103 24.5693 26.2103C26.2635 26.2103 27.9375 25.8414 29.4748 25.1291Z" stroke="url(#paint11_linear_170_7008)" stroke-width="0.5"/>
<path d="M32.9648 14.5517C32.9648 18.9185 29.4248 22.4584 25.0581 22.4584C20.6913 22.4584 17.1514 18.9185 17.1514 14.5517C17.1514 10.185 20.6913 6.64502 25.0581 6.64502C29.4248 6.64502 32.9648 10.185 32.9648 14.5517Z" fill="black"/>
<path d="M32.9648 14.5517C32.9648 18.9185 29.4248 22.4584 25.0581 22.4584C20.6913 22.4584 17.1514 18.9185 17.1514 14.5517C17.1514 10.185 20.6913 6.64502 25.0581 6.64502C29.4248 6.64502 32.9648 10.185 32.9648 14.5517Z" fill="url(#paint12_radial_170_7008)"/>
<path d="M32.9648 14.5517C32.9648 18.9185 29.4248 22.4584 25.0581 22.4584C20.6913 22.4584 17.1514 18.9185 17.1514 14.5517C17.1514 10.185 20.6913 6.64502 25.0581 6.64502C29.4248 6.64502 32.9648 10.185 32.9648 14.5517Z" stroke="black" stroke-width="0.5"/>
<path d="M32.9648 14.5517C32.9648 18.9185 29.4248 22.4584 25.0581 22.4584C20.6913 22.4584 17.1514 18.9185 17.1514 14.5517C17.1514 10.185 20.6913 6.64502 25.0581 6.64502C29.4248 6.64502 32.9648 10.185 32.9648 14.5517Z" stroke="url(#paint13_linear_170_7008)" stroke-width="0.5"/>
<path d="M32.9648 14.5517C32.9648 18.9185 29.4248 22.4584 25.0581 22.4584C20.6913 22.4584 17.1514 18.9185 17.1514 14.5517C17.1514 10.185 20.6913 6.64502 25.0581 6.64502C29.4248 6.64502 32.9648 10.185 32.9648 14.5517Z" stroke="url(#paint14_linear_170_7008)" stroke-width="0.5"/>
<g style="mix-blend-mode:plus-lighter" filter="url(#filter2_f_170_7008)">
<path d="M32.9648 14.5517C32.9648 18.9185 29.4248 22.4584 25.0581 22.4584C20.6913 22.4584 17.1514 18.9185 17.1514 14.5517C17.1514 10.185 20.6913 6.64502 25.0581 6.64502C29.4248 6.64502 32.9648 10.185 32.9648 14.5517Z" stroke="url(#paint15_linear_170_7008)" stroke-width="0.5"/>
</g>
</g>
<defs>
<filter id="filter0_f_170_7008" x="33.2971" y="10.3923" width="13.2139" height="13.2139" filterUnits="userSpaceOnUse" color-interpolation-filters="sRGB">
<feFlood flood-opacity="0" result="BackgroundImageFix"/>
<feBlend mode="normal" in="SourceGraphic" in2="BackgroundImageFix" result="shape"/>
<feGaussianBlur stdDeviation="0.448618" result="effect1_foregroundBlur_170_7008"/>
</filter>
<filter id="filter1_f_170_7008" x="3.93187" y="10.3923" width="13.2139" height="13.2139" filterUnits="userSpaceOnUse" color-interpolation-filters="sRGB">
<feFlood flood-opacity="0" result="BackgroundImageFix"/>
<feBlend mode="normal" in="SourceGraphic" in2="BackgroundImageFix" result="shape"/>
<feGaussianBlur stdDeviation="0.448618" result="effect1_foregroundBlur_170_7008"/>
</filter>
<filter id="filter2_f_170_7008" x="16.0041" y="5.49778" width="18.1079" height="18.1079" filterUnits="userSpaceOnUse" color-interpolation-filters="sRGB">
<feFlood flood-opacity="0" result="BackgroundImageFix"/>
<feBlend mode="normal" in="SourceGraphic" in2="BackgroundImageFix" result="shape"/>
<feGaussianBlur stdDeviation="0.448618" result="effect1_foregroundBlur_170_7008"/>
</filter>
<radialGradient id="paint0_radial_170_7008" cx="0" cy="0" r="1" gradientUnits="userSpaceOnUse" gradientTransform="translate(18.9245 11.2881) rotate(24.1353) scale(27.9275 15.0483)">
<stop stop-color="#34678E"/>
<stop offset="1" stop-color="#040410"/>
</radialGradient>
<linearGradient id="paint1_linear_170_7008" x1="20.2451" y1="11.2881" x2="21.2316" y2="24.5246" gradientUnits="userSpaceOnUse">
<stop stop-color="#7FB1EB"/>
<stop offset="0.33" stop-color="#89C3EA"/>
<stop offset="0.81" stop-color="#2F2F2F"/>
</linearGradient>
<linearGradient id="paint2_linear_170_7008" x1="32.9244" y1="11.2896" x2="41.3751" y2="18.764" gradientUnits="userSpaceOnUse">
<stop stop-color="#7FC5EB"/>
<stop offset="0.33" stop-color="#89AEEA"/>
<stop offset="0.81" stop-color="#040410" stop-opacity="0"/>
</linearGradient>
<radialGradient id="paint3_radial_170_7008" cx="0" cy="0" r="1" gradientUnits="userSpaceOnUse" gradientTransform="translate(25.9161 21.9409) rotate(34.4607) scale(24.4193 16.4513)">
<stop stop-color="#34678E"/>
<stop offset="1" stop-color="#040410"/>
</radialGradient>
<linearGradient id="paint4_linear_170_7008" x1="18.3535" y1="3.28385" x2="46.9999" y2="35.7584" gradientUnits="userSpaceOnUse">
<stop stop-color="#7FB1EB"/>
<stop offset="0.33" stop-color="#89C3EA"/>
<stop offset="0.81" stop-color="#2F2F2F"/>
</linearGradient>
<radialGradient id="paint5_radial_170_7008" cx="0" cy="0" r="1" gradientUnits="userSpaceOnUse" gradientTransform="translate(-10.4387 11.2881) rotate(24.1353) scale(27.9275 15.0483)">
<stop stop-color="#34678E"/>
<stop offset="1" stop-color="#040410"/>
</radialGradient>
<linearGradient id="paint6_linear_170_7008" x1="-9.11822" y1="11.2881" x2="-8.13171" y2="24.5246" gradientUnits="userSpaceOnUse">
<stop stop-color="#7FB1EB"/>
<stop offset="0.33" stop-color="#89C3EA"/>
<stop offset="0.81" stop-color="#2F2F2F"/>
</linearGradient>
<linearGradient id="paint7_linear_170_7008" x1="3.55916" y1="11.2896" x2="12.0099" y2="18.764" gradientUnits="userSpaceOnUse">
<stop stop-color="#7FC5EB"/>
<stop offset="0.33" stop-color="#89AEEA"/>
<stop offset="0.81" stop-color="#040410" stop-opacity="0"/>
</linearGradient>
<radialGradient id="paint8_radial_170_7008" cx="0" cy="0" r="1" gradientUnits="userSpaceOnUse" gradientTransform="translate(-9.51647 21.9409) rotate(34.4607) scale(24.4193 16.4513)">
<stop stop-color="#34678E"/>
<stop offset="1" stop-color="#040410"/>
</radialGradient>
<linearGradient id="paint9_linear_170_7008" x1="-1.52157" y1="9.20017" x2="11.5673" y2="35.7584" gradientUnits="userSpaceOnUse">
<stop stop-color="#7FB1EB"/>
<stop offset="0.33" stop-color="#89C3EA"/>
<stop offset="0.81" stop-color="#2F2F2F"/>
</linearGradient>
<radialGradient id="paint10_radial_170_7008" cx="0" cy="0" r="1" gradientUnits="userSpaceOnUse" gradientTransform="translate(-23.3816 21.9243) rotate(19.2639) scale(61.7092 27.7529)">
<stop stop-color="#34678E"/>
<stop offset="1" stop-color="#040410"/>
</radialGradient>
<linearGradient id="paint11_linear_170_7008" x1="7.51634" y1="9.89592" x2="37.6202" y2="42.2834" gradientUnits="userSpaceOnUse">
<stop stop-color="#7FB1EB"/>
<stop offset="0.33" stop-color="#89C3EA"/>
<stop offset="0.81" stop-color="#2F2F2F"/>
</linearGradient>
<radialGradient id="paint12_radial_170_7008" cx="0" cy="0" r="1" gradientUnits="userSpaceOnUse" gradientTransform="translate(-4.91123 6.39502) rotate(24.1353) scale(39.8964 21.4976)">
<stop stop-color="#34678E"/>
<stop offset="1" stop-color="#040410"/>
</radialGradient>
<linearGradient id="paint13_linear_170_7008" x1="17.0536" y1="8.15687" x2="31.3224" y2="26.4279" gradientUnits="userSpaceOnUse">
<stop stop-color="#7FB1EB"/>
<stop offset="0.33" stop-color="#89C3EA"/>
<stop offset="0.81" stop-color="#2F2F2F"/>
</linearGradient>
<linearGradient id="paint14_linear_170_7008" x1="29.4083" y1="21.9036" x2="20.1858" y2="7.11281" gradientUnits="userSpaceOnUse">
<stop stop-color="white" stop-opacity="0"/>
<stop offset="1" stop-color="white"/>
</linearGradient>
<linearGradient id="paint15_linear_170_7008" x1="15.0872" y1="6.39502" x2="27.1596" y2="17.0728" gradientUnits="userSpaceOnUse">
<stop stop-color="#7FC5EB"/>
<stop offset="0.33" stop-color="#89AEEA"/>
<stop offset="0.81" stop-color="#040410" stop-opacity="0"/>
</linearGradient>
<clipPath id="clip0_170_7008">
<rect width="50" height="50" fill="white" transform="translate(0 0.339355)"/>
</clipPath>
</defs>
</svg>
