<svg width="940" height="71" viewBox="0 0 940 71" fill="none" xmlns="http://www.w3.org/2000/svg">
<rect y="2" width="940" height="68" rx="10" fill="#040410" fill-opacity="0.8"/>
<g clip-path="url(#clip0_2544_8777)">
<g opacity="0.6" filter="url(#filter0_f_2544_8777)">
<rect x="138.574" y="2.0166" width="161.389" height="36.1319" fill="url(#paint0_linear_2544_8777)"/>
</g>
<g opacity="0.8" filter="url(#filter1_f_2544_8777)">
<rect x="185.543" y="-16.0493" width="91.5341" height="36.1319" fill="white"/>
</g>
<mask id="mask0_2544_8777" style="mask-type:luminance" maskUnits="userSpaceOnUse" x="91" y="2" width="669" height="69">
<path d="M760 2.0166H91V70.0166H760V2.0166Z" fill="white"/>
</mask>
<g mask="url(#mask0_2544_8777)">
<g style="mix-blend-mode:overlay" opacity="0.3">
<path d="M758.744 71.8061L319.967 -367.812M756 74.5533L317.225 -365.065M753.258 77.3005L314.484 -362.318M750.516 80.0477L311.742 -359.57M747.774 82.7969L309 -356.823M745.033 85.5441L306.258 -354.074M742.291 88.2913L303.516 -351.327M739.545 91.0385L300.77 -348.58M736.803 93.7876L298.028 -345.832M734.061 96.5348L295.286 -343.083M731.319 99.282L292.544 -340.336M728.577 102.029L289.802 -337.589M725.835 104.776L287.06 -334.842M723.093 107.526L284.318 -332.095M720.351 110.273L281.577 -329.345M717.609 113.02L278.835 -326.598M714.867 115.767L276.091 -323.851M712.124 118.516L273.349 -321.104M709.382 121.263L270.607 -318.355M706.64 124.011L267.865 -315.607M703.894 126.758L265.119 -312.86M701.152 129.505L262.377 -310.113M698.41 132.254L259.635 -307.366M695.668 135.001L256.893 -304.617M692.926 137.749L254.151 -301.869M690.184 140.496L251.409 -299.122M687.442 143.243L248.668 -296.375M684.7 145.992L245.926 -293.626M681.958 148.739L243.184 -290.879M679.217 151.487L240.442 -288.132M676.475 154.234L237.7 -285.384M673.733 156.981L234.958 -282.637M670.991 159.73L232.214 -279.888M668.245 162.477L229.468 -277.141M665.503 165.225L226.726 -274.394M662.759 167.972L223.984 -271.646M660.017 170.719L221.242 -268.899M657.275 173.468L218.5 -266.15M654.533 176.215L215.759 -263.403M651.791 178.962L213.017 -260.656M649.049 181.712L210.275 -257.908M646.308 184.457L207.533 -255.161M643.566 187.206L204.791 -252.412M640.824 189.953L202.049 -249.665M638.082 192.7L199.307 -246.918M635.34 195.45L196.565 -244.171M632.594 198.197L193.819 -241.423M629.852 200.944L191.077 -238.674M627.11 203.691L188.335 -235.927M624.368 206.438L185.593 -233.18M621.626 209.187L182.85 -230.433M618.884 211.935L180.108 -227.683M616.141 214.682L177.366 -224.936M613.399 217.429L174.624 -222.189M610.657 220.176L171.882 -219.442M607.915 222.925L169.14 -216.695M605.173 225.673L166.398 -213.945M602.431 228.42L163.656 -211.198M599.689 231.167L160.914 -208.451M596.943 233.916L158.168 -205.704M594.201 236.663L155.426 -202.957M591.459 239.411L152.684 -200.208M588.717 242.158L149.943 -197.46M585.975 244.905L147.201 -194.713M583.233 247.654L144.459 -191.966M580.492 250.401L141.717 -189.219M577.75 253.149L138.973 -186.47M575.008 255.896L136.231 -183.722M572.264 258.643L133.489 -180.975M569.522 261.392L130.747 -178.226M566.78 264.139L128.005 -175.479M564.038 266.886L125.263 -172.732M561.292 269.634L122.517 -169.984M558.55 272.381L119.775 -167.237M555.808 275.13L117.034 -164.488M553.066 277.877L114.292 -161.741M550.324 280.624L111.55 -158.994M547.583 283.372L108.808 -156.246M544.841 286.119L106.066 -153.499M542.099 288.868L103.324 -150.75M539.357 291.615L100.582 -148.003M536.615 294.362L97.84 -145.256M533.873 297.11L95.0981 -142.509M531.131 299.857L92.3543 -139.761M528.389 302.606L89.6123 -137.012M525.643 305.353L86.8665 -134.265M522.901 308.1L84.1246 -131.518M520.157 310.848L81.3826 -128.771M517.416 313.597L78.6407 -126.023M514.674 316.344L75.8988 -123.274M511.932 319.091L73.1568 -120.527M509.19 321.838L70.4149 -117.78M506.448 324.587L67.673 -115.033M503.706 327.335L64.9311 -112.284M500.964 330.082L62.1892 -109.536M498.222 332.829L59.4472 -106.789M495.48 335.576L56.7053 -104.042M492.734 338.325L53.9595 -101.295M489.992 341.073L51.2175 -98.5456M487.25 343.82L48.4756 -95.7984M484.508 346.567L45.7337 -93.0512M481.767 349.314L42.9898 -90.304M479.025 352.063L40.2479 -87.5548M476.281 354.81L37.506 -84.8076M473.539 357.558L34.764 -82.0604M470.797 360.305L32.0221 -79.3132M468.055 363.054L29.2802 -76.566M465.313 365.801L26.5382 -73.8169M462.571 368.548L23.7963 -71.0697M459.829 371.296L21.0544 -68.3225" stroke="#0C0D0D" stroke-width="0.602198"/>
</g>
</g>
</g>
<line x1="49.9951" y1="3.00001" x2="456.995" y2="1.00001" stroke="url(#paint1_linear_2544_8777)" stroke-width="2"/>
<defs>
<filter id="filter0_f_2544_8777" x="78.3544" y="-58.2032" width="281.828" height="156.572" filterUnits="userSpaceOnUse" color-interpolation-filters="sRGB">
<feFlood flood-opacity="0" result="BackgroundImageFix"/>
<feBlend mode="normal" in="SourceGraphic" in2="BackgroundImageFix" result="shape"/>
<feGaussianBlur stdDeviation="30.1099" result="effect1_foregroundBlur_2544_8777"/>
</filter>
<filter id="filter1_f_2544_8777" x="125.323" y="-76.2692" width="211.973" height="156.572" filterUnits="userSpaceOnUse" color-interpolation-filters="sRGB">
<feFlood flood-opacity="0" result="BackgroundImageFix"/>
<feBlend mode="normal" in="SourceGraphic" in2="BackgroundImageFix" result="shape"/>
<feGaussianBlur stdDeviation="30.1099" result="effect1_foregroundBlur_2544_8777"/>
</filter>
<linearGradient id="paint0_linear_2544_8777" x1="138.574" y1="20.0826" x2="299.963" y2="20.0826" gradientUnits="userSpaceOnUse">
<stop stop-color="#6DC5D8"/>
<stop offset="1" stop-color="#6A77E8"/>
</linearGradient>
<linearGradient id="paint1_linear_2544_8777" x1="50.0025" y1="4.49999" x2="457.002" y2="2.49999" gradientUnits="userSpaceOnUse">
<stop offset="0.025" stop-color="white" stop-opacity="0"/>
<stop offset="0.515" stop-color="white"/>
<stop offset="1" stop-color="white" stop-opacity="0"/>
</linearGradient>
<clipPath id="clip0_2544_8777">
<rect width="669" height="68" fill="white" transform="translate(91 2.0166)"/>
</clipPath>
</defs>
</svg>
